STARTFONT 2.1
FONT -Monotype-Bookman Old Style-Bold-I-Normal--50-360-100-100-P-319-iso8859-9
SIZE 36 100 100
FONTBOUNDINGBOX 83 60 -11 -12

STARTPROPERTIES 24
FOUNDRY "Monotype"
FAMILY_NAME "Bookman Old Style"
WEIGHT_NAME "Bold"
SLANT "I"
SETWIDTH_NAME "Normal"
ADD_STYLE_NAME ""
PIXEL_SIZE 50
POINT_SIZE 360
RESOLUTION_X 100
RESOLUTION_Y 100
SPACING "P"
AVERAGE_WIDTH 319
CHARSET_REGISTRY "iso8859"
CHARSET_ENCODING "9"
FACE_NAME "Bookman Old Style Bold Italic ISO Latin5"
_DEC_DEVICE_FONTNAMES "PS=bookmanoldstyle-bit-lat5"
COPYRIGHT "Copyright (c) 1993 Monotype Typography Ltd."
CAP_HEIGHT 42
X_HEIGHT 32
WEIGHT 10
QUAD_WIDTH 35
DEFAULT_CHAR 160
FONT_DESCENT 14
FONT_ASCENT 49
ENDPROPERTIES

CHARS 191

STARTCHAR space
ENCODING 32
SWIDTH 340 0
DWIDTH 17 0
BBX 0 0 0 0
BITMAP
ENDCHAR

STARTCHAR exclam
ENCODING 33
SWIDTH 320 0
DWIDTH 16 0
BBX 18 36 4 -1
BITMAP
003C00
00FE00
00FF00
01FF00
01FF00
01FF00
01FF00
01FE00
03FE00
03FC00
03FC00
03FC00
03F800
03F800
03F800
03F000
03F000
03F000
03E000
07E000
07E000
07C000
07C000
07C000
078000
000000
000000
0F0000
3F8000
3FC000
7FC000
7FC000
7FC000
7F8000
3F8000
1E0000
ENDCHAR

STARTCHAR quotedbl
ENCODING 34
SWIDTH 380 0
DWIDTH 19 0
BBX 19 14 6 21
BITMAP
060300
0F0780
1F0F80
1F0F80
3F1F80
3F1F80
3E1F00
3E1F00
3C1E00
3C1E00
3C1E00
381C00
381C00
301800
ENDCHAR

STARTCHAR numbersign
ENCODING 35
SWIDTH 600 0
DWIDTH 30 0
BBX 28 33 5 0
BITMAP
003C1E00
003C1E00
003C3E00
003C3E00
003C3E00
007C3C00
007C3C00
00783C00
00783C00
00787C00
1FFFFFC0
1FFFFFC0
1FFFFFC0
1FFFFFC0
00F07800
00F0F800
00F0F800
00F0F800
3FFFFF80
3FFFFF80
3FFFFF80
3FFFFF80
01E1F000
01E1F000
01E1F000
03E1E000
03E1E000
03C1E000
03C1E000
03C3E000
03C3E000
07C3C000
07C3C000
ENDCHAR

STARTCHAR dollar
ENCODING 36
SWIDTH 680 0
DWIDTH 34 0
BBX 32 46 5 -6
BITMAP
00000F00
00000F00
00001E00
00001E00
00001E00
00001E00
000FFE38
003FFF78
00FFFFF8
01FFFFFC
01FFFFFC
03FC7FFC
03F87BFC
07F079FC
07F078FC
07F0F8FC
07F8F07C
07FEF07C
07FFF070
03FFF000
03FFFC00
01FFFF00
00FFFFC0
003FFFE0
000FFFF0
0003FFF0
3E03FFF8
3E03DFF8
3F03C7F8
3F0783F8
3F8783F8
3F8783F8
3FC783F8
3FFF87F0
3FFF1FF0
3FFFFFE0
3FFFFFC0
3CFFFF80
3C7FFE00
001FF800
001E0000
001E0000
003E0000
003C0000
003C0000
003C0000
ENDCHAR

STARTCHAR percent
ENCODING 37
SWIDTH 880 0
DWIDTH 44 0
BBX 43 35 4 0
BITMAP
003F80003C00
00FFE0007800
03FFF0007000
07E1F000F000
0FC1F801E000
0F80F803C000
1F80F8078000
1F80F80F0000
3F01F80E0000
3F01F81E0000
3F01F83C0000
3E01F0780000
3E03F0F00000
3E03E1E00000
3F07E3C00000
1F0FC3800000
1FFF87800000
07FE0F01F800
01F81E0FFE00
00003C1FFF00
0000783F1F80
0000707E0F80
0000F07C0F80
0001E0F80F80
0003C0F80F80
000781F80F80
000F01F81F80
000E01F01F00
001E01F01F00
003C01F03F00
007801F07E00
00F000F8FC00
01E000FFF800
03C0007FF000
03C0001F8000
ENDCHAR

STARTCHAR ampersand
ENCODING 38
SWIDTH 980 0
DWIDTH 49 0
BBX 50 36 3 -1
BITMAP
00007FE0000000
0001FFF0000000
0003FFFC000000
0007FFFC000000
000FF1FE000000
000FE0FE000000
001FC0FE000000
001FC0FE000000
001FC0FE000000
000FC1FC000000
000FE3FC000000
0007FFF8000000
0003FFE0FFF800
001FFFC1FFF800
007FFE01FFF000
01FFFF01FFF000
03FF3F81FFF000
07FC1FC03F0000
0FF81FE03E0000
1FF00FF07E0000
1FE00FF07C0000
3FC00FF8F81C00
3FC007F9F83E00
3FC007FDF07F00
3FC003FFF07F00
3FC003FFE07F00
3FE003FFC07F00
3FE001FF807F00
1FF000FFC07E00
1FFC07FFE0FE00
0FFFFFFFF1FC00
0FFFFFFFFFFC00
07FFFFFFFFF800
01FFFFCFFFF000
007FFE07FFC000
000FF000FF0000
ENDCHAR

STARTCHAR quoteright
ENCODING 39
SWIDTH 320 0
DWIDTH 16 0
BBX 16 18 5 18
BITMAP
01E0
03F0
07F8
0FFC
0FFC
0FFC
0FFC
07FC
03FC
007C
00F8
01F8
03F0
0FE0
3FC0
3F00
3C00
1000
ENDCHAR

STARTCHAR parenleft
ENCODING 40
SWIDTH 260 0
DWIDTH 13 0
BBX 19 47 2 -12
BITMAP
000200
000700
000F80
001FC0
003F80
007F00
007F00
00FE00
01FC00
01FC00
03F800
03F800
03F800
07F000
07F000
0FF000
0FE000
0FE000
0FE000
1FE000
1FC000
1FC000
1FC000
3FC000
3F8000
3F8000
3F8000
3F8000
3F8000
3F0000
7F0000
7F0000
7F0000
7F0000
7F0000
7F0000
7F0000
3F0000
3F0000
3F0000
3F0000
3F0000
1F8000
1F8000
0F8000
0F0000
040000
ENDCHAR

STARTCHAR parenright
ENCODING 41
SWIDTH 260 0
DWIDTH 13 0
BBX 19 47 -2 -12
BITMAP
000400
001E00
003F00
003F00
001F00
001F80
001F80
001F80
001F80
001FC0
001FC0
001FC0
001FC0
001FC0
001FC0
001FC0
001FC0
001FC0
001F80
003F80
003F80
003F80
003F80
007F80
007F00
007F00
007F00
007F00
00FF00
00FE00
00FE00
01FE00
01FC00
01FC00
03FC00
03F800
03F800
07F000
07F000
0FE000
1FC000
1FC000
3F8000
7F0000
3E0000
1C0000
080000
ENDCHAR

STARTCHAR asterisk
ENCODING 42
SWIDTH 460 0
DWIDTH 23 0
BBX 22 19 6 15
BITMAP
003800
007C00
007C00
107C00
3C7800
7E7800
7F31E0
3FF3F0
1FFFF0
00FFF0
00F9E0
07F800
1FBC00
1F9E00
3F1F00
1E1F00
1C1F00
001E00
000400
ENDCHAR

STARTCHAR plus
ENCODING 43
SWIDTH 600 0
DWIDTH 30 0
BBX 27 23 5 6
BITMAP
001F0000
001F0000
001F0000
001F0000
001F0000
001F0000
001F0000
001F0000
001F0000
7FFFFFC0
7FFFFFC0
7FFFFFC0
7FFFFFC0
7FFFFFC0
001F0000
001F0000
001F0000
001F0000
001F0000
001F0000
001F0000
001F0000
001F0000
ENDCHAR

STARTCHAR comma
ENCODING 44
SWIDTH 340 0
DWIDTH 17 0
BBX 16 18 1 -9
BITMAP
01C0
07F0
0FF8
0FFC
0FFC
0FFC
0FFC
07FC
037C
00FC
00F8
01F0
03F0
0FE0
3F80
3F00
3C00
1000
ENDCHAR

STARTCHAR minus
ENCODING 45
SWIDTH 600 0
DWIDTH 30 0
BBX 28 5 5 15
BITMAP
3FFFFFC0
3FFFFFC0
3FFFFFC0
3FFFFFC0
3FFFFFC0
ENDCHAR

STARTCHAR period
ENCODING 46
SWIDTH 340 0
DWIDTH 17 0
BBX 13 9 3 -1
BITMAP
0780
1FC0
1FE0
3FE0
3FE0
3FE0
3FE0
1FC0
0F00
ENDCHAR

STARTCHAR slash
ENCODING 47
SWIDTH 360 0
DWIDTH 18 0
BBX 32 44 -4 -8
BITMAP
0000007E
000000FC
000000FC
000001F8
000001F8
000003F0
000007E0
000007E0
00000FC0
00000FC0
00001F80
00001F80
00003F00
00003F00
00007E00
00007E00
0000FC00
0000FC00
0001F800
0001F800
0003F000
0003F000
0007E000
000FC000
000FC000
001F8000
001F8000
003F0000
003F0000
007E0000
007E0000
00FC0000
00FC0000
01F80000
01F80000
03F00000
03F00000
07E00000
07E00000
0FC00000
1F800000
1F800000
3F000000
3F000000
ENDCHAR

STARTCHAR zero
ENCODING 48
SWIDTH 680 0
DWIDTH 34 0
BBX 35 36 3 -1
BITMAP
0000FF8000
0003FFE000
000FFFF800
003FFFFC00
007FFFFE00
00FFE3FE00
01FF81FF00
01FE00FF00
03FE00FF80
07FC007F80
07F8007F80
0FF8007F80
0FF8007F80
0FF0007F80
1FF0007F80
1FF0007F80
1FE000FF80
1FE000FF80
3FE000FF00
3FE000FF00
3FE001FF00
3FC001FF00
3FC001FE00
3FC003FE00
3FC003FE00
3FC003FC00
3FC007FC00
3FE00FF800
1FE00FF000
1FF01FF000
0FF87FE000
0FFFFFC000
07FFFF8000
03FFFE0000
00FFFC0000
003FE00000
ENDCHAR

STARTCHAR one
ENCODING 49
SWIDTH 680 0
DWIDTH 34 0
BBX 26 35 6 0
BITMAP
00000F00
00007F00
0007FF00
007FFE00
007FFE00
00FFFE00
00FFFE00
00FFFC00
0001FC00
0003FC00
0003FC00
0003F800
0003F800
0007F800
0007F800
0007F800
0007F000
0007F000
000FF000
000FF000
000FE000
000FE000
001FE000
001FE000
001FE000
001FC000
003FC000
003FC000
003FC000
007FC000
1FFFFF00
3FFFFF00
3FFFFF00
3FFFFE00
3FFFFE00
ENDCHAR

STARTCHAR two
ENCODING 50
SWIDTH 680 0
DWIDTH 34 0
BBX 35 36 2 -1
BITMAP
0000FF8000
0007FFF000
000FFFFC00
003FFFFE00
007FFFFF00
00FFFFFF80
00FE03FF80
01FC00FFC0
01F8007FC0
03F0007FC0
03E0007FC0
03E0007FC0
03E0007F80
03E0007F80
00E000FF80
000001FF00
000003FE00
000007FC00
00000FF800
00003FF000
00007FE000
0000FF8000
0003FF0000
0007FC0000
001FF01F00
003FC01F00
00FF803E00
01FE007E00
07FFFFFE00
0FFFFFFC00
3FFFFFFC00
3FFFFFF800
3FFFFFF800
3FFFFFF800
7FFFFFF000
000000F000
ENDCHAR

STARTCHAR three
ENCODING 51
SWIDTH 680 0
DWIDTH 34 0
BBX 34 36 3 -1
BITMAP
0000FF8000
0007FFE000
001FFFF800
003FFFFC00
007FFFFE00
007FFFFF00
00FE07FF00
01FC01FF00
01F801FF00
01F000FF00
01F000FF00
000000FF00
000001FE00
000001FE00
000007FC00
0001FFF800
0001FFE000
0003FF0000
0003FFC000
0003FFF000
00001FF800
000007F800
000007FC00
1F0003FC00
3F8003FC00
3F8003FC00
3FC003FC00
3FC007FC00
3FE007F800
3FE00FF800
1FF83FF000
0FFFFFE000
07FFFFC000
03FFFF8000
00FFFE0000
001FF00000
ENDCHAR

STARTCHAR four
ENCODING 52
SWIDTH 680 0
DWIDTH 34 0
BBX 35 34 2 0
BITMAP
000001FE00
000003FE00
000007FE00
00000FFE00
00001FFC00
00003FFC00
0000FFFC00
0001FFFC00
0003FFFC00
0007FBF800
000FE3F800
001FC7F800
007F87F800
00FF07F000
01FE07F000
03FC0FF000
07F80FF000
0FE00FF000
1FC00FE000
1FFFFFFFC0
1FFFFFFF80
1FFFFFFF80
1FFFFFFF80
3FFFFFFF80
3FFFFFFF00
00003FC000
00003FC000
00003F8000
00007F8000
00007F8000
00007F8000
00007F0000
00007F0000
0000FF0000
ENDCHAR

STARTCHAR five
ENCODING 53
SWIDTH 680 0
DWIDTH 34 0
BBX 34 36 4 -1
BITMAP
0000000780
003FFFFF00
003FFFFF00
007FFFFF00
007FFFFF00
007FFFFE00
007FFFFE00
00FFFFFE00
00FC000000
00F8000000
01F8000000
01F8000000
01F8000000
01FFF80000
03FFFF0000
03FFFFC000
03FFFFE000
03FFFFF000
07FFFFF800
04007FF800
00000FFC00
000007FC00
000007FC00
0C0003FC00
3F0003FC00
3F0003FC00
7F8003FC00
7F8003F800
3FC007F800
3FE00FF000
3FF83FE000
1FFFFFC000
0FFFFF8000
03FFFF0000
01FFFC0000
001FE00000
ENDCHAR

STARTCHAR six
ENCODING 54
SWIDTH 680 0
DWIDTH 34 0
BBX 32 36 5 -1
BITMAP
00000FFC
0000FFFC
0003FFFC
000FFFFC
003FFFF8
007FFC00
00FFE000
01FF8000
03FE0000
07FC0000
07F80000
0FF00000
0FF1FC00
1FEFFF00
1FFFFFC0
3FFFFFE0
3FFFFFE0
3FFFFFF0
3FF83FF8
7FF00FF8
7FE00FF8
7FC007F8
7F8007F8
7F8007F8
7F8007F8
7F8007F8
7F800FF8
3F800FF0
3FC01FF0
3FC03FE0
1FF0FFE0
0FFFFFC0
07FFFF80
03FFFE00
01FFFC00
003FE000
ENDCHAR

STARTCHAR seven
ENCODING 55
SWIDTH 680 0
DWIDTH 34 0
BBX 36 35 6 0
BITMAP
01E0000000
01FFFFFFC0
03FFFFFFC0
03FFFFFF80
07FFFFFF80
07FFFFFF80
0FFFFFFF00
0FFFFFFE00
0F8001FC00
1F0003F800
1F0007F000
3E000FE000
1E001FC000
00003F8000
00007F0000
0000FE0000
0001FE0000
0003FC0000
0003F80000
0007F80000
000FF00000
000FF00000
001FE00000
003FE00000
003FC00000
007FC00000
007F800000
00FF800000
00FF000000
01FF000000
01FF000000
01FE000000
03FE000000
03FE000000
03FE000000
ENDCHAR

STARTCHAR eight
ENCODING 56
SWIDTH 680 0
DWIDTH 34 0
BBX 33 36 4 -1
BITMAP
0001FF0000
000FFFE000
003FFFF000
007FFFF800
00FFFFFC00
01FF87FE00
01FE01FE00
01FC00FE00
03FC00FE00
03FC00FE00
03FC00FC00
03FE01FC00
01FF83F800
01FFE7F000
01FFFFE000
00FFFF8000
007FFF0000
003FFFC000
007FFFE000
00FFFFF000
03FDFFF800
07F87FF800
0FE01FFC00
1FE007FC00
1FC003FC00
3F8003FC00
3F8003FC00
3F8003F800
3FC003F800
3FE007F800
1FF83FF000
1FFFFFE000
0FFFFFC000
07FFFF8000
01FFFE0000
003FF00000
ENDCHAR

STARTCHAR nine
ENCODING 57
SWIDTH 680 0
DWIDTH 34 0
BBX 33 36 4 -1
BITMAP
0007FE0000
003FFF8000
007FFFE000
01FFFFF000
03FFFFF000
03FF0FF800
07FC03FC00
0FF803FC00
0FF001FE00
0FF001FE00
1FE001FE00
1FE001FE00
1FE001FE00
1FE001FE00
1FE003FE00
1FF003FE00
1FF007FE00
0FFC1FFE00
0FFFFFFC00
07FFFFFC00
07FFFFFC00
01FFFFF800
00FFF7F800
001F8FF800
00000FF000
00001FF000
00003FE000
00007FC000
0001FF8000
0007FF0000
007FFE0000
1FFFFC0000
3FFFF00000
3FFFC00000
3FFF000000
3FF0000000
ENDCHAR

STARTCHAR colon
ENCODING 58
SWIDTH 340 0
DWIDTH 17 0
BBX 17 26 3 -1
BITMAP
007800
01FC00
01FE00
03FE00
03FE00
03FE00
03FE00
01FC00
00F800
000000
000000
000000
000000
000000
000000
000000
000000
0F8000
1FC000
1FE000
3FE000
3FE000
3FE000
3FE000
1FC000
0F0000
ENDCHAR

STARTCHAR semicolon
ENCODING 59
SWIDTH 340 0
DWIDTH 17 0
BBX 19 34 0 -9
BITMAP
001E00
007F00
007F80
00FF80
00FF80
00FF80
00FF80
007F00
003E00
000000
000000
000000
000000
000000
000000
000000
00E000
03F800
07FC00
07FC00
0FFE00
0FFE00
07FE00
07FE00
01BC00
007C00
00FC00
01F800
03F000
07E000
1FC000
3F8000
1E0000
180000
ENDCHAR

STARTCHAR less
ENCODING 60
SWIDTH 620 0
DWIDTH 31 0
BBX 27 26 6 4
BITMAP
000000C0
000003C0
00001FC0
00007FC0
0001FF80
0007FE00
001FF800
007FE000
01FF8000
0FFE0000
3FF80000
7FC00000
7F000000
7F800000
7FE00000
3FF80000
0FFE0000
01FF8000
007FE000
001FF800
0007FE00
0001FF80
00007FC0
00001FC0
000003C0
000000C0
ENDCHAR

STARTCHAR equal
ENCODING 61
SWIDTH 600 0
DWIDTH 30 0
BBX 28 14 5 10
BITMAP
3FFFFFC0
3FFFFFC0
3FFFFFC0
3FFFFFC0
3FFFFFC0
00000000
00000000
00000000
00000000
3FFFFFC0
3FFFFFC0
3FFFFFC0
3FFFFFC0
3FFFFFC0
ENDCHAR

STARTCHAR greater
ENCODING 62
SWIDTH 620 0
DWIDTH 31 0
BBX 27 26 6 4
BITMAP
60000000
7C000000
7F000000
7FC00000
3FF00000
0FFC0000
03FF0000
00FFC000
003FF800
000FFE00
0003FF80
00007FC0
00001FC0
00003FC0
0000FFC0
0003FF80
000FFE00
003FF000
00FFC000
03FF0000
0FFC0000
3FF00000
7FC00000
7F000000
78000000
60000000
ENDCHAR

STARTCHAR question
ENCODING 63
SWIDTH 620 0
DWIDTH 31 0
BBX 29 36 6 -1
BITMAP
007FE000
03FFF800
07FFFE00
1FFFFF00
1FFFFF80
3FF0FFC0
3FC03FE0
3F801FE0
3F800FF0
1F000FF0
0E000FF0
00000FF0
00000FF0
00001FF0
00003FE0
0003FFE0
01FFFFC0
01FFFFC0
01FFFF80
01FFFF00
03FFFC00
03FFE000
03E00000
03E00000
03E00000
00000000
00000000
07800000
1FC00000
1FE00000
3FE00000
3FE00000
3FE00000
3FC00000
1FC00000
0F000000
ENDCHAR

STARTCHAR at
ENCODING 64
SWIDTH 780 0
DWIDTH 39 0
BBX 46 45 1 -11
BITMAP
000007F00000
00007FFF0000
0003E001E000
000F00007000
001C00001800
007800000C00
00F000000600
01C000000300
03C000000180
038000000180
070003800080
0E000FEFC0C0
0E001E6F80C0
1C007C3F8040
1C00783F8040
3800F83F8040
3801F03F0040
3803F03F0040
3003E03F0040
3007E03E0040
7007E07E0040
700FC07E00C0
700FC07E0080
700FC0FC0080
701FC1FC0180
701F81FC0100
301F82F80300
301F87F80600
301FCDF80400
381FF9F80C00
381FF9F81830
181FF0F86020
180FE0FFC020
0C07803E0060
0E00000000C0
060000000080
070000000180
038000000300
01C000000600
00E000000C00
007000003800
003C00006000
000F0003C000
0003F01F0000
00003FF80000
ENDCHAR

STARTCHAR A
ENCODING 65
SWIDTH 720 0
DWIDTH 36 0
BBX 40 34 -1 0
BITMAP
000001FE00
000003FE00
000007FE00
000007FE00
00000FFE00
00000FFF00
00001FFF00
00003FFF00
00003FFF00
00007EFF00
0000FEFF00
0000FC7F80
0001FC7F80
0001F87F80
0003F07F80
0007F07F80
0007E07F80
000FE07FC0
001FFFFFC0
001FFFFFC0
003FFFFFC0
003FFFFFC0
007FFFFFC0
00FE003FE0
00FC003FE0
01FC003FE0
03F8001FE0
03F8001FE0
07F8003FF0
3FFF03FFFC
3FFF03FFFC
3FFF03FFFC
7FFE03FFF8
7FFE03FFF8
ENDCHAR

STARTCHAR B
ENCODING 66
SWIDTH 720 0
DWIDTH 36 0
BBX 40 34 0 0
BITMAP
007FFFFF80
007FFFFFE0
007FFFFFF8
007FFFFFFC
007FFFFFFC
000FF80FFE
000FF007FE
000FF003FE
000FF003FE
000FF003FE
001FF003FC
001FE003FC
001FE007F8
001FE01FF0
003FFFFFE0
003FFFFF80
003FFFFE00
003FFFFF80
003FFFFFE0
007F803FF0
007F801FF0
007F800FF8
007F800FF8
00FF000FF8
00FF000FF8
00FF000FF8
00FF001FF0
01FF003FF0
01FF00FFE0
1FFFFFFFC0
1FFFFFFF80
3FFFFFFF00
3FFFFFFC00
3FFFFFE000
ENDCHAR

STARTCHAR C
ENCODING 67
SWIDTH 700 0
DWIDTH 35 0
BBX 37 36 3 -1
BITMAP
00007F8000
0003FFF3C0
000FFFFFC0
003FFFFFC0
007FFFFFC0
00FFF07FC0
01FFC01FE0
03FF000FE0
07FE000FE0
07FC0007E0
0FFC0007E0
0FF80003E0
1FF80003E0
1FF00003E0
1FF0000000
3FF0000000
3FE0000000
3FE0000000
3FE0000000
3FE0000000
3FE0000000
3FE0000000
3FE0000000
3FF0000000
3FF0000600
1FF0000F00
1FF8001F80
0FFC003F80
0FFE007F00
07FF01FE00
03FFFFFC00
01FFFFF800
00FFFFF000
007FFFC000
001FFF0000
0003F00000
ENDCHAR

STARTCHAR D
ENCODING 68
SWIDTH 760 0
DWIDTH 38 0
BBX 43 34 0 0
BITMAP
007FFFFE0000
007FFFFFC000
007FFFFFF000
007FFFFFF800
00FFFFFFFC00
000FF01FFE00
000FF007FE00
000FF003FF00
000FF001FF00
001FF001FF80
001FE000FF80
001FE000FF80
001FE000FF80
003FE000FF80
003FC000FF80
003FC000FF80
003FC000FF80
003FC000FF80
007FC001FF80
007F8001FF00
007F8001FF00
007F8003FF00
00FF8003FE00
00FF0007FE00
00FF0007FC00
00FF000FFC00
00FF001FF800
01FF007FF000
01FF03FFE000
1FFFFFFFC000
3FFFFFFF0000
3FFFFFFE0000
3FFFFFF80000
3FFFFF800000
ENDCHAR

STARTCHAR E
ENCODING 69
SWIDTH 720 0
DWIDTH 36 0
BBX 41 34 0 0
BITMAP
007FFFFFF800
007FFFFFF800
007FFFFFF800
007FFFFFFC00
00FFFFFFFC00
000FF007FC00
000FF000FE00
000FF0007E00
000FF0003E00
001FF07C3F00
001FE07C1E00
001FE0781000
001FE0F80000
003FE1F80000
003FFFF80000
003FFFF00000
003FFFF00000
003FFFF00000
007FFFF00000
007F83F00000
007F81E03000
007F81E03C00
00FF83E07C00
00FF03E07C00
00FF0000FC00
00FF0001F800
00FF0003F800
01FF000FF000
01FF007FF000
1FFFFFFFE000
1FFFFFFFE000
3FFFFFFFC000
3FFFFFFFC000
3FFFFFFF8000
ENDCHAR

STARTCHAR F
ENCODING 70
SWIDTH 660 0
DWIDTH 33 0
BBX 40 34 0 0
BITMAP
007FFFFFE0
007FFFFFF0
007FFFFFF0
007FFFFFF0
001FFFFFF8
000FF80FF8
000FF003F8
000FF000FC
000FF000FC
001FF0787C
001FE0F830
001FE0F800
001FE0F000
003FE1F000
003FFFF000
003FFFF000
003FFFF000
003FFFE000
007FFFE000
007F87E000
007F83E000
007F83C000
00FF83C000
00FF07C000
00FF000000
00FF000000
00FF000000
01FF000000
01FF000000
1FFFE00000
3FFFE00000
3FFFE00000
3FFFE00000
3FFFC00000
ENDCHAR

STARTCHAR G
ENCODING 71
SWIDTH 760 0
DWIDTH 38 0
BBX 41 36 3 -1
BITMAP
00007FC00000
0003FFF9E000
000FFFFFE000
003FFFFFE000
007FFFFFE000
00FFF07FE000
01FFC01FE000
03FF800FE000
07FE0007E000
07FE0007E000
0FFC0003E000
0FF80003E000
1FF80003F000
1FF000000000
1FF000000000
3FF000000000
3FF000000000
3FE003FFFE00
3FE003FFFE00
3FE003FFFC00
3FE003FFFC00
3FE007FFFC00
3FE0007FC000
3FE0003FC000
3FF0007F8000
1FF0007F8000
1FF8007F8000
1FF8007F8000
0FFC00FF0000
07FE01FF0000
07FFC7FF0000
03FFFFFF0000
01FFFFFE0000
00FFFFFE0000
003FFF3E0000
000FFC000000
ENDCHAR

STARTCHAR H
ENCODING 72
SWIDTH 800 0
DWIDTH 40 0
BBX 48 34 0 0
BITMAP
007FFFC3FFFC
007FFF87FFFC
007FFF87FFFC
00FFFF87FFF8
00FFFF87FFF8
000FF800FF80
000FF000FF80
000FF000FF00
000FF000FF00
001FF000FF00
001FE001FF00
001FE001FF00
001FE001FE00
003FE001FE00
003FFFFFFE00
003FFFFFFE00
003FFFFFFC00
007FFFFFFC00
007FFFFFFC00
007F8007FC00
007F8007F800
007F8007F800
00FF8007F800
00FF000FF800
00FF000FF800
00FF000FF000
01FF000FF000
01FE001FF000
03FF001FF000
1FFFE1FFFE00
3FFFE1FFFE00
3FFFE3FFFE00
3FFFC3FFFE00
3FFFC3FFFE00
ENDCHAR

STARTCHAR I
ENCODING 73
SWIDTH 380 0
DWIDTH 19 0
BBX 27 34 0 0
BITMAP
007FFF80
007FFF80
00FFFF80
00FFFF80
00FFFF00
001FF800
000FF000
001FF000
001FE000
001FE000
001FE000
001FE000
003FE000
003FC000
003FC000
003FC000
007FC000
007F8000
007F8000
007F8000
00FF8000
00FF8000
00FF0000
00FF0000
00FF0000
01FF0000
01FE0000
01FE0000
03FE0000
3FFFE000
3FFFE000
3FFFC000
3FFFC000
7FFFC000
ENDCHAR

STARTCHAR J
ENCODING 74
SWIDTH 620 0
DWIDTH 31 0
BBX 39 35 0 -1
BITMAP
000007FFFC
000007FFF8
000007FFF8
000007FFF8
00000FFFF8
000000FF80
000000FF00
000000FF00
000000FF00
000001FF00
000001FE00
000001FE00
000001FE00
000003FE00
000003FC00
000003FC00
000003FC00
000003FC00
000007FC00
070007F800
0F8007F800
1FC007F800
3FC00FF800
3FC00FF000
3FC00FF000
3FC00FF000
3FC01FF000
3FE01FE000
3FE03FE000
1FF8FFC000
1FFFFF8000
0FFFFF0000
07FFFE0000
01FFF80000
007FE00000
ENDCHAR

STARTCHAR K
ENCODING 75
SWIDTH 780 0
DWIDTH 39 0
BBX 46 34 0 0
BITMAP
007FFFCFFFF0
007FFF8FFFF0
007FFF8FFFF0
00FFFF8FFFF0
00FFFF9FFFE0
000FF803FF00
000FF003FE00
000FF007F800
001FF00FF000
001FE03FE000
001FE07F8000
001FE0FF0000
001FE1FE0000
003FE7F80000
003FCFF80000
003FDFF80000
003FFFFC0000
007FFFFC0000
007FFFFE0000
007FFBFF0000
007FF1FF0000
007FE0FF8000
00FF80FF8000
00FF007FC000
00FF007FC000
00FF003FE000
01FF003FE000
01FE001FF000
01FF001FF800
1FFFE0FFFF00
3FFFE1FFFF00
3FFFE1FFFF00
3FFFC1FFFE00
3FFFC1FFFE00
ENDCHAR

STARTCHAR L
ENCODING 76
SWIDTH 640 0
DWIDTH 32 0
BBX 39 34 -1 0
BITMAP
007FFF8000
007FFF8000
00FFFF8000
00FFFF8000
00FFFF0000
000FF80000
000FF00000
001FF00000
001FE00000
001FE00000
001FE00000
001FE00000
003FE00000
003FC00000
003FC00000
003FC00000
007FC00000
007F800000
007F800000
007F800000
007F800040
00FF8000F0
00FF0000F8
00FF0001F0
00FF0003F0
01FF0007E0
01FE000FE0
01FE003FC0
03FE01FFC0
3FFFFFFF80
3FFFFFFF80
3FFFFFFF00
3FFFFFFF00
7FFFFFFF00
ENDCHAR

STARTCHAR M
ENCODING 77
SWIDTH 860 0
DWIDTH 43 0
BBX 51 34 0 0
BITMAP
007FFF003FFF80
007FFF807FFF80
007FFF807FFF80
00FFFF80FFFF80
00FFFF80FFFF00
001FBF81F7F800
000FBF81FFF000
001FBF83EFF000
001FBF83EFF000
001F3F83CFF000
001F3F87DFE000
003F3F879FE000
003F3F8F9FE000
003F3F8F1FE000
003E3F9F1FC000
007E3F9F3FC000
007E3FBE3FC000
007E3FBE3FC000
007C3FFC3F8000
007C3FFC7F8000
00FC3FF87F8000
00FC3FF87F8000
00F83FF07F8000
00F83FF07F0000
01F83FE0FF0000
01F83FE0FF0000
01F83FC0FF0000
01F03FC0FE0000
03F83F81FF0000
3FFF3F9FFFE000
3FFF3F1FFFE000
3FFE3F1FFFC000
3FFE3E1FFFC000
3FFE3E1FFFC000
ENDCHAR

STARTCHAR N
ENCODING 78
SWIDTH 740 0
DWIDTH 37 0
BBX 45 34 0 0
BITMAP
007FFE03FFF0
007FFE07FFE0
007FFE07FFE0
00FFFF07FFE0
00FFFF07FFE0
000FFF00FE00
000FFF00FC00
000FFF80FC00
000FFF80FC00
001FFF80F800
001FBFC1F800
001FBFC1F800
001F3FC1F800
003F1FE1F800
003F1FE3F000
003F1FE3F000
003E0FE3F000
003E0FF3F000
007E0FF3E000
007E0FF7E000
007C07FFE000
007C07FFE000
00FC07FFC000
00FC03FFC000
00FC03FFC000
00F803FFC000
01F801FFC000
01F801FF8000
01F801FF8000
1FFF80FF8000
3FFF00FF8000
3FFF00FF0000
3FFF00FF0000
3FFF007F0000
ENDCHAR

STARTCHAR O
ENCODING 79
SWIDTH 760 0
DWIDTH 38 0
BBX 40 36 3 -1
BITMAP
00007FE000
0003FFFC00
000FFFFE00
003FFFFF80
007FFFFFC0
00FFF0FFE0
01FFC03FE0
03FF001FF0
03FE001FF8
07FE000FF8
0FFC000FF8
0FF80007FC
1FF80007FC
1FF80007FC
1FF00007FC
3FF00007FC
3FF00007FC
3FE00007FC
3FE0000FFC
3FE0000FFC
3FE0000FFC
3FE0000FF8
3FE0001FF8
3FE0001FF8
3FF0001FF0
1FF0003FF0
1FF0003FE0
0FF8007FE0
0FF800FFC0
07FC01FF80
07FF07FF00
03FFFFFE00
01FFFFFC00
007FFFF000
001FFFC000
0007FE0000
ENDCHAR

STARTCHAR P
ENCODING 80
SWIDTH 640 0
DWIDTH 32 0
BBX 37 34 1 0
BITMAP
007FFFFC00
00FFFFFF00
00FFFFFFC0
00FFFFFFC0
003FFFFFE0
001FF07FF0
001FF03FF0
001FF01FF0
001FE01FF0
001FE01FF0
001FE01FF0
003FE01FF0
003FC03FE0
003FC07FE0
003FC1FFC0
007FFFFF80
007FFFFF00
007FFFFE00
007FFFF800
007FFFE000
00FF800000
00FF000000
00FF000000
00FF000000
01FF000000
01FE000000
01FE000000
01FE000000
03FE000000
3FFFE00000
3FFFC00000
3FFFC00000
7FFFC00000
7FFFC00000
ENDCHAR

STARTCHAR Q
ENCODING 81
SWIDTH 760 0
DWIDTH 38 0
BBX 40 44 3 -9
BITMAP
00007FE000
0003FFFC00
000FFFFE00
003FFFFF80
007FFFFFC0
00FFE0FFE0
01FF803FF0
03FF001FF0
07FE000FF8
07FC000FF8
0FFC000FF8
0FF80007FC
1FF80007FC
1FF00007FC
1FF00007FC
3FF00007FC
3FF00007FC
3FE00007FC
3FE0000FFC
3FE0000FFC
3FE0000FF8
3FE0001FF8
3FE0001FF8
3FE0001FF0
1FF0003FF0
1FF0003FE0
0FF8007FE0
0FF800FFC0
07FE01FF80
03FF8FFF00
03FFFFFE00
00FFFFF800
007FFFF000
001FFFC000
001FFC0000
001FE00000
001FF00000
000FF00200
000FFC1E00
000FFFFF00
0007FFFF00
0003FFFF00
0001FFFC00
00007FE000
ENDCHAR

STARTCHAR R
ENCODING 82
SWIDTH 740 0
DWIDTH 37 0
BBX 41 34 0 0
BITMAP
007FFFFF0000
007FFFFFE000
007FFFFFF800
007FFFFFFC00
003FFFFFFC00
000FF81FFE00
000FF007FE00
000FF003FE00
000FF003FE00
001FF003FE00
001FE003FE00
001FE007FC00
001FE007FC00
001FE01FF800
003FFFFFF000
003FFFFFE000
003FFFFFC000
003FFFFF0000
007FFFF00000
007F8FF80000
007F87F80000
007F87FC0000
00FF83FE0000
00FF03FE0000
00FF01FF0000
00FF01FF8000
00FF00FF8000
01FF00FFC000
01FF007FE000
1FFFE07FFC00
1FFFE03FFC00
3FFFE01FFC00
3FFFE01FF800
3FFFC00FF800
ENDCHAR

STARTCHAR S
ENCODING 83
SWIDTH 700 0
DWIDTH 35 0
BBX 36 36 3 -1
BITMAP
0003FF0000
001FFFC780
003FFFF780
00FFFFFFC0
01FFFFFFC0
01FF07FFC0
03FC00FFC0
03F8007FC0
07F8003FC0
07F8001FC0
07F8000FC0
07FC0007C0
07FF0007C0
03FFE00000
03FFFC0000
01FFFF8000
00FFFFE000
007FFFF800
003FFFFC00
000FFFFE00
0001FFFF00
3E003FFF00
3E0007FF80
3F0001FF80
3F8000FF80
3F80007F80
3FC0007F80
3FE0007F80
3FF0007F00
3FFC00FF00
3FFF87FE00
3FFFFFFC00
3EFFFFF800
3E7FFFF000
3C1FFFE000
0003FF0000
ENDCHAR

STARTCHAR T
ENCODING 84
SWIDTH 700 0
DWIDTH 35 0
BBX 38 35 4 0
BITMAP
01E00001C0
01FFFFFFC0
03FFFFFFC0
03FFFFFFE0
07FFFFFFE0
07FFFFFFE0
0FF0FF0FE0
0FE0FF07E0
1FC1FF07F0
3F81FE03F0
3F01FE03F0
7E01FE01F0
1E03FE01E0
0403FC0000
0003FC0000
0003FC0000
0003FC0000
0007FC0000
0007F80000
0007F80000
0007F80000
000FF80000
000FF00000
000FF00000
000FF00000
000FF00000
001FF00000
001FE00000
001FE00000
003FE00000
03FFFE0000
03FFFC0000
03FFFC0000
03FFFC0000
07FFFC0000
ENDCHAR

STARTCHAR U
ENCODING 85
SWIDTH 740 0
DWIDTH 37 0
BBX 40 35 5 -1
BITMAP
1FFFE07FFC
1FFFE0FFFC
3FFFE0FFFC
3FFFE0FFFC
3FFFC0FFFC
07FE001FC0
03FC001F80
07FC001F80
07F8001F80
07F8001F00
07F8003F00
07F8003F00
0FF8003F00
0FF0003E00
0FF0007E00
0FF0007E00
1FF0007E00
1FE0007C00
1FE0007C00
1FE000FC00
1FE000FC00
3FE000FC00
3FC000F800
3FC001F800
3FC001F800
3FC003F000
3FE003F000
3FF007E000
1FF81FE000
1FFFFFC000
0FFFFF8000
07FFFF0000
03FFFE0000
00FFF80000
001F800000
ENDCHAR

STARTCHAR V
ENCODING 86
SWIDTH 660 0
DWIDTH 33 0
BBX 37 34 5 0
BITMAP
1FFFC3FFF0
1FFFC7FFE0
3FFFC7FFE0
3FFFC7FFE0
3FFF87FFE0
0FFC00FF00
07F800FE00
07F800FC00
07F801FC00
07FC01F800
07FC03F800
07FC03F000
03FC07F000
03FC07E000
03FC0FE000
03FC0FC000
03FC1F8000
03FC1F8000
03FC3F0000
03FC3F0000
01FE7E0000
01FE7E0000
01FEFC0000
01FEFC0000
01FFF80000
01FFF80000
01FFF00000
01FFE00000
00FFE00000
00FFC00000
00FFC00000
00FF800000
00FF800000
00FF000000
ENDCHAR

STARTCHAR W
ENCODING 87
SWIDTH 1000 0
DWIDTH 50 0
BBX 54 34 5 0
BITMAP
1FFFC7FFF3FFF0
1FFFCFFFE3FFF0
1FFFCFFFE3FFF0
3FFFCFFFE3FFF0
3FFF8FFFE7FFE0
0FFC03FE007F80
07F803FE007F00
07F801FE007E00
07F801FE00FE00
07FC01FE00FC00
07FC01FE01FC00
07FC03FE01F800
07FC03FE03F800
03FC07FE03F000
03FC07FE07F000
03FC0FFE07E000
03FC0FFF0FE000
03FC1FFF0FC000
03FC1FFF1F8000
03FC3EFF1F8000
03FC3EFF3F0000
03FE7CFF3F0000
01FE78FF7E0000
01FEF8FF7E0000
01FFF07FFC0000
01FFF07FFC0000
01FFE07FF80000
01FFE07FF80000
01FFC07FF00000
01FFC07FF00000
01FF807FE00000
00FF807FE00000
00FF007FC00000
00FF003FC00000
ENDCHAR

STARTCHAR X
ENCODING 88
SWIDTH 740 0
DWIDTH 37 0
BBX 46 34 -1 0
BITMAP
003FFFE7FFF0
003FFFC7FFF0
007FFFC7FFF0
007FFFC7FFE0
007FFFCFFFE0
000FFC01FF00
0007FC01FE00
0003FE01FC00
0003FE03F800
0001FF07F000
0000FF0FE000
0000FF9FC000
00007FFF8000
00003FFF0000
00003FFE0000
00003FFC0000
00007FF80000
0000FFF00000
0000FFF80000
0001FFFC0000
0003F3FC0000
0007E3FE0000
000FE1FF0000
001FC1FF0000
003F80FF8000
007F00FFC000
00FE007FC000
01FC007FE000
07FC007FF000
3FFF83FFFE00
3FFF83FFFE00
3FFF83FFFE00
3FFF07FFFC00
3FFF07FFFC00
ENDCHAR

STARTCHAR Y
ENCODING 89
SWIDTH 660 0
DWIDTH 33 0
BBX 37 34 5 0
BITMAP
1FFFE7FFE0
3FFFC7FFE0
3FFFC7FFE0
3FFFC7FFE0
3FFFCFFFE0
0FFC01FF00
07FC01FC00
07FC01FC00
03FE03F800
03FE07F000
01FE07E000
01FF0FC000
00FF1FC000
00FF3F8000
00FFBF0000
007FFE0000
007FFC0000
003FFC0000
003FF80000
001FF00000
001FE00000
001FE00000
001FE00000
003FE00000
003FC00000
003FC00000
003FC00000
007FC00000
007FC00000
07FFF80000
07FFF80000
0FFFF80000
0FFFF80000
0FFFF00000
ENDCHAR

STARTCHAR Z
ENCODING 90
SWIDTH 680 0
DWIDTH 34 0
BBX 39 34 1 0
BITMAP
001FFFFFF8
001FFFFFF8
003FFFFFF8
003FFFFFF8
007FFFFFF8
007FE07FF0
00FF00FFE0
01FC01FFC0
01F803FF80
03F007FF00
03E00FFE00
07E01FFC00
01C03FF800
00007FF000
0000FFE000
0001FFC000
0003FF8000
0007FF0000
000FFE0000
000FFC0000
001FF80180
003FF803E0
007FF007E0
00FFE007C0
01FFC00FC0
03FF801F80
07FF003F80
0FFE00FF00
1FFC07FF00
3FFFFFFE00
3FFFFFFE00
3FFFFFFC00
7FFFFFF800
7FFFFFF800
ENDCHAR

STARTCHAR bracketleft
ENCODING 91
SWIDTH 260 0
DWIDTH 13 0
BBX 25 47 -2 -12
BITMAP
000FFE00
000FFE00
000FFE00
001FFC00
001FC000
001F8000
001F8000
001F8000
003F8000
003F0000
003F0000
003F0000
007F0000
007F0000
007E0000
007E0000
007E0000
00FE0000
00FC0000
00FC0000
00FC0000
01FC0000
01FC0000
01F80000
01F80000
01F80000
03F80000
03F00000
03F00000
03F00000
07F00000
07E00000
07E00000
07E00000
07E00000
0FE00000
0FC00000
0FC00000
0FC00000
1FC00000
1F800000
1F800000
1F800000
3FF80000
3FF80000
3FF80000
3FF80000
ENDCHAR

STARTCHAR backslash
ENCODING 92
SWIDTH 580 0
DWIDTH 29 0
BBX 32 44 1 -8
BITMAP
7E000000
3F000000
3F000000
1F800000
1FC00000
0FC00000
07E00000
07E00000
03F00000
03F00000
01F80000
01F80000
00FC0000
00FC0000
007E0000
007E0000
003F0000
003F0000
001F8000
001F8000
000FC000
000FE000
0007E000
0007F000
0003F000
0001F800
0001F800
0000FC00
0000FC00
00007E00
00007E00
00003F00
00003F00
00001F80
00001F80
00000FC0
00000FC0
000007E0
000007F0
000003F0
000003F8
000001F8
000001FC
000000FC
ENDCHAR

STARTCHAR bracketright
ENCODING 93
SWIDTH 260 0
DWIDTH 13 0
BBX 25 47 -6 -12
BITMAP
000FFE00
000FFE00
000FFE00
000FFE00
0000FC00
0000FC00
0000FC00
0001FC00
0001F800
0001F800
0001F800
0003F800
0003F000
0003F000
0003F000
0003F000
0007F000
0007E000
0007E000
0007E000
000FE000
000FC000
000FC000
000FC000
001FC000
001FC000
001F8000
001F8000
001F8000
003F8000
003F0000
003F0000
003F0000
007F0000
007E0000
007E0000
007E0000
00FE0000
00FE0000
00FC0000
00FC0000
00FC0000
01FC0000
1FF80000
3FF80000
3FF80000
3FF80000
ENDCHAR

STARTCHAR asciicircum
ENCODING 94
SWIDTH 620 0
DWIDTH 31 0
BBX 27 20 6 14
BITMAP
001F0000
003F8000
003F8000
007FC000
007FC000
00FFE000
00FBE000
01FBF000
01F1F000
03F1F800
03E0F800
07E0FC00
07C07C00
0FC07E00
0F803E00
1F803F00
1F001F00
3F001F80
3E000F80
7E000FC0
ENDCHAR

STARTCHAR underscore
ENCODING 95
SWIDTH 500 0
DWIDTH 25 0
BBX 29 3 -2 -6
BITMAP
3FFFFFE0
3FFFFFE0
3FFFFFE0
ENDCHAR

STARTCHAR quoteleft
ENCODING 96
SWIDTH 320 0
DWIDTH 16 0
BBX 16 18 6 18
BITMAP
0008
003C
00FC
03FC
07F0
0FC0
0F80
1F00
1F00
3EC0
3FE0
3FF0
3FF0
3FF0
3FF0
1FF0
0FE0
0380
ENDCHAR

STARTCHAR a
ENCODING 97
SWIDTH 680 0
DWIDTH 34 0
BBX 36 26 2 -1
BITMAP
0007F00000
001FFC7E00
007FFFFE00
00FFFFFE00
01FFFFFC00
03FF0FFC00
07FC03FC00
0FF803FC00
0FF003F800
1FF007F800
1FE007F800
3FE007F800
3FE00FF000
3FC00FF000
3FC01FF000
3FC01FF000
3FC03FF000
3FC07FE000
3FE0FFE000
3FF1FFE100
1FFFFFE780
1FFFFFFF80
0FFFEFFFC0
07FFCFFF80
03FF07FE00
00FC03F800
ENDCHAR

STARTCHAR b
ENCODING 98
SWIDTH 600 0
DWIDTH 30 0
BBX 31 37 2 -1
BITMAP
00078000
003F8000
07FF0000
07FF0000
0FFF0000
0FFF0000
0FFE0000
00FE0000
01FE0000
01FE0000
01FE0000
01FC1F80
03FC7FC0
03FCFFE0
03FDFFF0
03FBFFF8
03FFFFF8
07FF8FFC
07FF07FC
07FE07FC
07FC07FC
0FF807FC
0FF807FC
0FF007FC
0FF007F8
0FE00FF8
1FE00FF8
1FE01FF0
1FE01FF0
1FC03FE0
3FC07FC0
3FF0FFC0
3FFFFF80
3FFFFF00
3FFFFC00
7E3FF800
000FC000
ENDCHAR

STARTCHAR c
ENCODING 99
SWIDTH 560 0
DWIDTH 28 0
BBX 29 26 3 -1
BITMAP
0003FC00
001FFF00
007FFF80
01FFFFC0
03FFFFE0
07FE3FE0
07FC1FE0
0FF81FE0
1FF00FE0
1FF00FC0
3FE00780
3FE00000
3FC00000
3FC00000
7FC00000
7FC00000
7FC00000
7FC00000
3FC00700
3FE01F80
3FF8FF80
1FFFFF80
0FFFFF00
07FFFC00
03FFF000
00FFC000
ENDCHAR

STARTCHAR d
ENCODING 100
SWIDTH 680 0
DWIDTH 34 0
BBX 35 37 3 -1
BITMAP
0000000780
0000003F80
000007FF00
000007FF00
00000FFF00
00000FFF00
00000FFF00
000000FE00
000001FE00
000001FE00
000001FE00
000FF1FC00
003FFDFC00
00FFFFFC00
01FFFFFC00
03FFFFFC00
07FF1FF800
0FFC07F800
0FF807F800
1FF007F800
1FF007F000
3FE00FF000
3FE00FF000
3FC00FF000
3FC01FF000
7FC01FE000
7FC03FE000
7FC03FE000
7FC07FE000
7FC0FFC000
3FE3FFC200
3FFFFFFF00
1FFFDFFF80
1FFF9FFF80
0FFF0FFF00
07FE07FC00
01F003F000
ENDCHAR

STARTCHAR e
ENCODING 101
SWIDTH 560 0
DWIDTH 28 0
BBX 28 26 3 -1
BITMAP
0001FC00
000FFF00
007FFF80
00FFFFC0
01FFFFE0
03FE0FE0
07FC0FE0
0FF80FE0
1FF01FE0
1FE03FC0
3FE7FF80
3FFFFF00
3FFFFE00
7FFFF800
7FFF8000
7FC00000
7FC00000
7FC00300
3FC00F00
3FE01F80
3FF8FFC0
1FFFFF00
0FFFFE00
0FFFFC00
03FFF000
00FF8000
ENDCHAR

STARTCHAR f
ENCODING 102
SWIDTH 420 0
DWIDTH 21 0
BBX 40 46 -7 -11
BITMAP
0000001FE0
000000FFF8
000001FFFC
000003FFFC
000007FFFC
00000FF1FC
00000FE0FC
00001FE078
00001FE000
00001FE000
00001FC000
0001FFFE00
0003FFFC00
0003FFFC00
0003FFFC00
0003FFFC00
00007F8000
00007F8000
00007F0000
00007F0000
0000FF0000
0000FF0000
0000FF0000
0000FE0000
0000FE0000
0001FE0000
0001FE0000
0001FC0000
0001FC0000
0003FC0000
0003FC0000
0003FC0000
0003F80000
0003F80000
0007F80000
0007F80000
0007F00000
0007F00000
1E07F00000
3F0FE00000
3F8FE00000
3FFFC00000
3FFF800000
3FFF000000
1FFE000000
07F0000000
ENDCHAR

STARTCHAR g
ENCODING 103
SWIDTH 620 0
DWIDTH 31 0
BBX 35 36 0 -11
BITMAP
0001FE0000
0007FF8F80
001FFFDF80
003FFFFF80
007FFFFF80
00FFC3FF80
01FF80FF00
01FF00FF00
03FE00FF00
03FE00FF00
07FC00FE00
07FC01FE00
07F801FE00
0FF803FE00
0FF803FC00
0FF807FC00
0FF807FC00
0FF80FFC00
0FF81FFC00
07FC3FF800
07FFFFF800
03FFFFF800
03FFFFF800
01FFF7F000
00FFC7F000
001F0FF000
00000FF000
0E001FE000
1F003FE000
3F807FC000
3FE0FF8000
3FFFFF0000
3FFFFE0000
1FFFF80000
0FFFF00000
01FF000000
ENDCHAR

STARTCHAR h
ENCODING 104
SWIDTH 700 0
DWIDTH 35 0
BBX 35 37 4 -1
BITMAP
0007800000
007F800000
07FF000000
07FF000000
0FFF000000
0FFF000000
0FFF000000
00FE000000
01FE000000
01FE000000
01FE000000
01FC1F8000
01FC7FE000
03FCFFF000
03FDFFF000
03FFFFF800
03FFFFF800
07FFC7F800
07FF07F800
07FE07F800
07FE07F000
0FFC07F000
0FF80FF000
0FF80FF000
0FF00FE000
0FF00FE000
1FF00FE000
1FE01FE000
1FE01FE000
1FE01FC000
3FC01FC200
3FC01FEF00
3FC01FFF80
3F801FFF80
3F800FFF00
7F800FFC00
000003F000
ENDCHAR

STARTCHAR i
ENCODING 105
SWIDTH 380 0
DWIDTH 19 0
BBX 18 37 4 -1
BITMAP
003C00
007E00
00FF00
00FF00
01FF00
01FF00
00FF00
00FE00
007C00
000000
000000
001E00
01FC00
3FFC00
3FFC00
3FFC00
7FF800
7FF800
07F800
07F800
0FF000
0FF000
0FF000
0FF000
1FE000
1FE000
1FE000
1FE000
3FC000
3FC000
3FC600
3FCE00
3FFF00
3FFF80
1FFE00
1FFC00
07F000
ENDCHAR

STARTCHAR j
ENCODING 106
SWIDTH 320 0
DWIDTH 16 0
BBX 31 47 -8 -11
BITMAP
000001E0
000007F0
000007F8
00000FF8
00000FF8
00000FF8
00000FF0
000007F0
000003C0
00000000
00000000
000001E0
00000FE0
0001FFC0
0001FFC0
0001FFC0
0003FFC0
0003FF80
00003F80
00007F80
00007F80
00007F80
00007F00
0000FF00
0000FF00
0000FF00
0000FE00
0000FE00
0001FE00
0001FE00
0001FE00
0001FC00
0003FC00
0003FC00
0003FC00
0003F800
0003F800
0007F800
0007F800
1E07F800
3F87F000
3FCFF000
3FFFE000
3FFFC000
3FFF8000
1FFE0000
07F80000
ENDCHAR

STARTCHAR k
ENCODING 107
SWIDTH 700 0
DWIDTH 35 0
BBX 36 37 3 -1
BITMAP
0003C00000
003F800000
03FF800000
07FF800000
07FF800000
07FF000000
07FF000000
00FF000000
00FF000000
00FF000000
00FE000000
01FE007E00
01FE03FF80
01FE07FFC0
01FC1FFFC0
03FC3FFFC0
03FC7E3FC0
03FCFC0F80
03FDF80200
03FBFC0000
07FBFC0000
07FFFC0000
07FFFE0000
07FFFE0000
0FFEFE0000
0FFCFF0000
0FF8FF0000
0FF8FF8000
0FF07F8000
1FF07F8000
1FE07FC100
1FE03FE780
1FE03FFFC0
3FC01FFFC0
3FC00FFF80
3FC00FFE00
000003F800
ENDCHAR

STARTCHAR l
ENCODING 108
SWIDTH 380 0
DWIDTH 19 0
BBX 17 36 5 -1
BITMAP
000E00
00FE00
1FFE00
1FFE00
1FFC00
1FFC00
3FFC00
03FC00
03F800
03F800
07F800
07F800
07F800
07F000
07F000
0FF000
0FF000
0FE000
0FE000
1FE000
1FE000
1FE000
1FC000
1FC000
3FC000
3FC000
3F8000
3F8000
7F8000
7F8400
7F9C00
7FFE00
3FFF00
3FFC00
1FF800
0FE000
ENDCHAR

STARTCHAR m
ENCODING 109
SWIDTH 960 0
DWIDTH 48 0
BBX 49 26 3 -1
BITMAP
001C1F803E0000
00FC7FC0FF8000
1FFCFFE3FFC000
1FFDFFF7FFC000
3FFFFFFFFFE000
3FFFFFFFFFE000
3FFF8FFF1FE000
03FF0FFE1FE000
07FE0FFC1FE000
07FC0FF81FC000
07FC0FF81FC000
07F80FF03FC000
0FF81FF03FC000
0FF81FE03FC000
0FF01FE03F8000
0FF01FE07F8000
0FE01FC07F8000
1FE03FC07F8000
1FE03FC07F8000
1FE03FC07F0800
1FC03F807FBC00
3FC07F807FFE00
3FC07F807FFE00
3FC07F807FFC00
3F807F003FF000
000000000FE000
ENDCHAR

STARTCHAR n
ENCODING 110
SWIDTH 680 0
DWIDTH 34 0
BBX 35 25 4 0
BITMAP
001E1F8000
00FC7FE000
1FFCFFF000
1FFDFFF000
3FFFFFF800
3FFFFFF800
3FFF87F800
03FF07F800
07FE07F800
07FE0FF000
07FC0FF000
07F80FF000
0FF80FE000
0FF01FE000
0FF01FE000
0FF01FE000
0FE01FC000
1FE01FC000
1FE03FC200
1FE03FCE00
1FC03FFF00
3FC03FFF80
3FC01FFF00
3FC00FFC00
3F8007F000
ENDCHAR

STARTCHAR o
ENCODING 111
SWIDTH 600 0
DWIDTH 30 0
BBX 31 25 2 0
BITMAP
0007F800
003FFF00
007FFFC0
01FFFFE0
03FFFFE0
07FE1FF0
0FFC0FF8
0FF807F8
1FF007F8
1FF007F8
1FE007F8
3FE007F8
3FE007F8
3FC00FF8
3FC00FF8
3FC00FF0
3FC01FF0
3FC01FE0
3FE03FE0
1FE07FC0
1FFFFF80
0FFFFF00
07FFFE00
03FFFC00
00FFE000
ENDCHAR

STARTCHAR p
ENCODING 112
SWIDTH 660 0
DWIDTH 33 0
BBX 38 36 -2 -11
BITMAP
0000707E00
0003F1FF80
007FF3FFC0
007FF7FFE0
00FFFFFFF0
00FFFFFFF0
00FFFF1FF0
001FFC0FF8
001FF80FF8
001FF00FF8
001FF00FF8
001FE00FF8
003FE00FF8
003FC00FF0
003FC01FF0
003F801FF0
007F801FE0
007F803FE0
007F807FC0
007F80FFC0
007FE1FF80
00FFFFFF00
00FFFFFE00
00FFFFFC00
00FE7FF000
01FE1F8000
01FE000000
01FE000000
01FC000000
03FC000000
03FC000000
3FFFC00000
3FFFC00000
3FFF800000
7FFF800000
7FFF800000
ENDCHAR

STARTCHAR q
ENCODING 113
SWIDTH 620 0
DWIDTH 31 0
BBX 32 36 3 -11
BITMAP
000FF000
003FFCFC
00FFFFFC
01FFFFFC
03FFFFFC
07FF1FF8
0FFC07F8
0FF807F8
1FF007F8
1FF007F0
3FE00FF0
3FE00FF0
3FC00FF0
7FC01FF0
7FC01FE0
7FC03FE0
7FC03FE0
7FC07FE0
7FC0FFC0
3FE3FFC0
3FFFFFC0
1FFFFFC0
1FFFBFC0
0FFF3F80
07FC7F80
00F07F80
00007F80
00007F00
0000FF00
0000FF00
0000FF00
000FFFE0
001FFFE0
001FFFE0
001FFFE0
001FFFC0
ENDCHAR

STARTCHAR r
ENCODING 114
SWIDTH 500 0
DWIDTH 25 0
BBX 28 25 3 0
BITMAP
000E0F00
00FE3FC0
1FFCFFC0
1FFDFFE0
1FFFFFE0
1FFFFFC0
3FFFFFC0
03FF8F80
03FF0000
07FE0000
07FC0000
07FC0000
07F80000
07F80000
0FF00000
0FF00000
0FF00000
0FE00000
1FE00000
1FE00000
1FE00000
1FC00000
3FC00000
3FC00000
3FC00000
ENDCHAR

STARTCHAR s
ENCODING 115
SWIDTH 540 0
DWIDTH 27 0
BBX 29 26 2 -1
BITMAP
0007F800
003FFF00
00FFFFC0
01FFFFE0
03FFFFE0
03F81FE0
03F80FE0
07F807E0
07FC01C0
07FF8000
03FFF000
03FFFC00
01FFFF00
00FFFF80
003FFF80
0007FFC0
0C01FFC0
3E007FC0
3F003FC0
3F803F80
3FE07F80
3FFFFF00
1FFFFF00
0FFFFC00
03FFF000
003F8000
ENDCHAR

STARTCHAR t
ENCODING 116
SWIDTH 440 0
DWIDTH 22 0
BBX 22 33 4 -1
BITMAP
001F00
003E00
003E00
007E00
00FE00
00FC00
01FC00
07FC00
1FFFF8
3FFFF8
3FFFF0
3FFFF0
7FFFF0
07F800
07F000
0FF000
0FF000
0FF000
0FE000
0FE000
1FE000
1FE000
1FE000
1FC000
3FC040
3FC0E0
3FC3F0
3FE7F0
3FFFE0
1FFFC0
0FFF80
07FE00
03FC00
ENDCHAR

STARTCHAR u
ENCODING 117
SWIDTH 680 0
DWIDTH 34 0
BBX 35 26 3 -1
BITMAP
000E000000
007E01FC00
1FFC03FC00
1FFC03FC00
1FFC03FC00
3FFC03F800
3FFC07F800
03F807F800
07F807F800
07F807F000
07F80FF000
07F00FF000
07F01FF000
0FF01FF000
0FF01FE000
0FF03FE000
0FE07FE000
1FE07FE000
1FE0FFC000
1FE1FFC200
1FFFFFFF00
1FFFDFFF80
0FFF9FFF80
0FFF0FFF00
07FE07FC00
01F003F000
ENDCHAR

STARTCHAR v
ENCODING 118
SWIDTH 540 0
DWIDTH 27 0
BBX 27 26 4 -1
BITMAP
00000E00
007C1F80
07F83F80
3FF83FC0
3FF83FC0
7FF83FC0
7FF83FC0
07F01FC0
07F01FC0
0FF01F80
0FF01F80
0FE01F80
0FE01F80
1FE03F00
1FE03F00
1FE07E00
1FC07E00
3FC0FC00
3FC1F800
3FC7F000
3FFFF000
3FFFE000
1FFF8000
1FFF0000
0FFC0000
03F00000
ENDCHAR

STARTCHAR w
ENCODING 119
SWIDTH 860 0
DWIDTH 43 0
BBX 44 26 3 -1
BITMAP
000000000700
001E01FC0F80
03FC03FC1FC0
1FFC03FC1FC0
1FFC03FC1FE0
3FFC03F81FE0
3FFC03F81FE0
03F807F80FE0
07F807F80FE0
07F807F80FC0
07F80FF00FC0
07F00FF00FC0
07F01FF00FC0
0FF01FF00F80
0FF03FE01F80
0FE03FE01F00
0FE07FE03F00
1FE07FE07E00
1FE0FFE0FE00
1FE1FFE1FC00
1FFFFFFFF800
1FFFDFFFF000
0FFF8FFFE000
0FFF07FFC000
07FE07FF0000
01F001FC0000
ENDCHAR

STARTCHAR x
ENCODING 120
SWIDTH 620 0
DWIDTH 31 0
BBX 36 26 -1 -1
BITMAP
0000000780
0007801FC0
001F803FC0
007FC07FE0
00FFC0FFC0
00FFE1FFC0
00FFE3FF80
00FFF7F000
000FF7C000
000FFF8000
0007FF0000
0007FF0000
0003FE0000
0007FE0000
0007FE0000
000FFF0000
001FFF0000
003FFF8000
007E7F8000
0FFC7FC100
1FFC3FE380
3FF83FFFC0
3FF01FFFC0
3FE00FFF80
3FC007FF00
1F0003FC00
ENDCHAR

STARTCHAR y
ENCODING 121
SWIDTH 600 0
DWIDTH 30 0
BBX 35 36 0 -11
BITMAP
0001C00000
001FC07F80
03FF807F80
03FF807F80
03FF807F00
07FF80FF00
07FF80FF00
007F00FF00
00FF00FE00
00FF01FE00
00FF01FE00
00FE01FE00
00FE03FE00
01FE03FC00
01FE03FC00
01FE07FC00
01FC0FFC00
03FC0FF800
03FC1FF800
03FC3FF800
03FFFFF800
03FFFFF000
01FFF7F000
01FFE7F000
00FFCFF000
001E0FE000
00001FE000
1E001FE000
3F003FC000
3F807F8000
7FC1FF8000
7FFFFF0000
3FFFFE0000
1FFFF80000
0FFFE00000
01FF000000
ENDCHAR

STARTCHAR z
ENCODING 122
SWIDTH 560 0
DWIDTH 28 0
BBX 31 26 1 -1
BITMAP
003FE000
00FFFFF8
01FFFFF8
03FFFFF8
07FFFFF8
07F83FF0
07F07FE0
07E0FFC0
07E1FF80
07C3FF00
0007FE00
000FFC00
001FF800
003FF000
007FE000
00FFC1C0
01FF83E0
03FF03F0
07FE07F0
0FFC07F0
1FFC0FF0
3FFFFFF0
3FFFFFE0
3FFFFFC0
3FFFFF80
0007FC00
ENDCHAR

STARTCHAR braceleft
ENCODING 123
SWIDTH 300 0
DWIDTH 15 0
BBX 22 44 0 -9
BITMAP
000030
0001F0
000780
001F00
003E00
003C00
007C00
007C00
00FC00
00FC00
00FC00
00FC00
00FC00
00FC00
00F800
00F800
00F800
00F000
01E000
03C000
070000
3C0000
300000
1E0000
0F0000
078000
078000
07C000
07C000
07C000
07C000
0F8000
0F8000
1F8000
1F0000
3F0000
3E0000
3E0000
3E0000
3E0000
1E0000
1F0000
0F8000
03E000
ENDCHAR

STARTCHAR bar
ENCODING 124
SWIDTH 620 0
DWIDTH 31 0
BBX 10 47 14 -11
BITMAP
3F00
3F00
3F00
3F00
3F00
3F00
3F00
3F00
3F00
3F00
3F00
3F00
3F00
3F00
3F00
3F00
3F00
3F00
3F00
3F00
3F00
3F00
3F00
3F00
3F00
3F00
3F00
3F00
3F00
3F00
3F00
3F00
3F00
3F00
3F00
3F00
3F00
3F00
3F00
3F00
3F00
3F00
3F00
3F00
3F00
3F00
3F00
ENDCHAR

STARTCHAR braceright
ENCODING 125
SWIDTH 300 0
DWIDTH 15 0
BBX 22 44 -2 -9
BITMAP
000C00
001F80
0003C0
0001E0
0001F0
0001F0
0001F0
0001F0
0001F0
0003F0
0003E0
0007E0
0007C0
0007C0
000F80
000F80
000F80
000F80
000780
000780
0001C0
0000F0
000030
0001E0
000780
000F00
001E00
003C00
007C00
007C00
007C00
007C00
00FC00
00FC00
00FC00
00FC00
00FC00
00F800
00F800
00F000
01E000
03C000
0F8000
3E0000
ENDCHAR

STARTCHAR asciitilde
ENCODING 126
SWIDTH 620 0
DWIDTH 31 0
BBX 28 10 6 12
BITMAP
00000100
03E00180
07FC0380
0FFF07C0
1FFFFF80
3FFFFF80
7C0FFF00
7803FE00
38007800
10000000
ENDCHAR

STARTCHAR space
ENCODING 160
SWIDTH 340 0
DWIDTH 21 0
BBX 0 0 0 0
BITMAP
ENDCHAR

STARTCHAR exclamdown
ENCODING 161
SWIDTH 320 0
DWIDTH 16 0
BBX 18 35 1 -11
BITMAP
003C00
00FE00
00FF00
01FF00
01FF00
01FF00
01FE00
00FE00
007800
000000
000000
00F000
01F000
01F000
01F000
03F000
03F000
03F000
07E000
07E000
07E000
0FE000
0FE000
0FE000
1FE000
1FE000
3FE000
3FE000
3FE000
7FC000
7FC000
7FC000
7FC000
3F8000
1E0000
ENDCHAR

STARTCHAR cent
ENCODING 162
SWIDTH 680 0
DWIDTH 34 0
BBX 27 36 8 -1
BITMAP
0000F000
0000F000
0001F000
0001F000
0001E000
0001E000
000FF000
007FFC00
01FFFF00
03FFFF80
07FFFF80
0FF83FC0
1FF03FC0
1FE01FC0
3FC00F80
3F800F00
3F800000
7F800000
7F800000
7F800000
7F800000
7FC00E00
3FC01E00
3FF07F00
1FFFFF00
1FFFFE00
0FFFF800
03FFF000
00FF8000
007C0000
00780000
00780000
00780000
00780000
00F80000
00F00000
ENDCHAR

STARTCHAR sterling
ENCODING 163
SWIDTH 680 0
DWIDTH 34 0
BBX 38 36 0 -1
BITMAP
000007F800
00003FFF00
0000FFFFC0
0001FFFFC0
0003FFFFE0
0007FFFFF0
0007FE0FF0
0007F803F0
000FF801F0
000FF001F0
000FF001F0
000FF00000
000FF00000
000FF00000
01FFFFF800
01FFFFF800
01FFFFF800
01FFFFF800
0003F80000
0003F80000
0003F80000
0003F800F0
07F3F801F0
0FFFF001F0
1FFFF001F0
3FFFE003F0
3F3FF803F0
7C1FFE0FE0
7C07FFFFE0
7C0FFFFFE0
7C1FFFFFC0
7F7FFFFF80
3FFE3FFF80
3FFC1FFF00
1FF807FE00
07E000F000
ENDCHAR

STARTCHAR currency
ENCODING 164
SWIDTH 680 0
DWIDTH 34 0
BBX 29 25 6 5
BITMAP
0C000180
1E0F83C0
3F7FF7E0
3FFFFFE0
1FFFFFC0
0FFFFF80
07F07F00
0FC01F80
0F800F80
0F800F80
1F0007C0
1F0007C0
1F0007C0
1F0007C0
1F0007C0
0F800FC0
0F800F80
0FC01F80
07F07F00
0FFFFF80
1FFFFFC0
3FFFFFE0
3F7FF7E0
1E1FC3C0
0C000180
ENDCHAR

STARTCHAR yen
ENCODING 165
SWIDTH 680 0
DWIDTH 34 0
BBX 39 34 4 0
BITMAP
0FFFF1FFF8
0FFFF1FFF8
0FFFF3FFF0
1FFFE3FFF0
1FFFE3FFF0
03FF007F80
01FE007F00
01FF00FE00
01FF00FC00
00FF01F800
00FF83F800
007F87F000
007FC7E000
003FCFC000
003FDF8000
0FFFFFFF00
0FFFFFFE00
1FFFFFFE00
1FFFFFFE00
000FF80000
000FF80000
000FF80000
3FFFFFFC00
3FFFFFFC00
3FFFFFFC00
7FFFFFF800
001FE00000
001FE00000
003FE00000
03FFFE0000
03FFFE0000
03FFFC0000
03FFFC0000
07FFFC0000
ENDCHAR

STARTCHAR brokenbar
ENCODING 166
SWIDTH 620 0
DWIDTH 31 0
BBX 10 47 14 -11
BITMAP
3F00
3F00
3F00
3F00
3F00
3F00
3F00
3F00
3F00
3F00
3F00
3F00
3F00
3F00
3F00
3F00
3F00
3F00
3F00
3F00
3F00
3800
0000
0000
0000
0700
3F00
3F00
3F00
3F00
3F00
3F00
3F00
3F00
3F00
3F00
3F00
3F00
3F00
3F00
3F00
3F00
3F00
3F00
3F00
3F00
3F00
ENDCHAR

STARTCHAR section
ENCODING 167
SWIDTH 620 0
DWIDTH 31 0
BBX 35 43 0 -8
BITMAP
00007FC000
0003FFF800
0007FFFE00
001FFFFF00
003FFFFF80
003FC1FF80
007F807FC0
007F007FC0
007F003F80
007F801F80
007FE00E00
007FFC0000
003FFF8000
001FFFE000
001FFFF800
003FFFFC00
007FFFFE00
01FC7FFF00
01F80FFF00
03F803FF00
03F800FF00
03FC007F00
03FF007E00
03FFE07E00
01FFFCFC00
01FFFFF800
00FFFFF000
007FFFE000
001FFFF000
0003FFF000
0000FFF800
0E001FF800
3F800FF800
3F8007F800
3FC007F800
3FC007F000
3FE00FF000
3FF83FE000
1FFFFFE000
0FFFFFC000
07FFFF8000
01FFFE0000
003FE00000
ENDCHAR

STARTCHAR dieresis
ENCODING 168
SWIDTH 520 0
DWIDTH 26 0
BBX 22 8 8 29
BITMAP
0F01E0
3F87F0
3F87F0
7F8FF0
7F8FF0
7F0FE0
3F07E0
3C0780
ENDCHAR

STARTCHAR copyright
ENCODING 169
SWIDTH 780 0
DWIDTH 39 0
BBX 38 34 4 0
BITMAP
0001FE0000
000FFFC000
003F03F000
0078007800
00E0001E00
01C0000F00
0380000700
0700FE2380
0E03C3E1C0
0C0F80E0C0
1C1F0060E0
183E002060
183E002070
387C000070
307C000030
307C000030
307C000030
307C000030
307C000030
307C000030
387E000030
383E000070
183E000060
1C1F0040E0
0C0F80C0C0
0E07C381C0
0701FE0180
0700000380
03C0000700
01E0001E00
0078003C00
003F01F000
000FFFC000
0001FE0000
ENDCHAR

STARTCHAR ordfeminine
ENCODING 170
SWIDTH 440 0
DWIDTH 22 0
BBX 25 16 3 19
BITMAP
00FE7C00
03FFF800
07FFF800
0FE3F800
0FC1F800
1F81F000
1F83F000
3F03F000
3F03F000
3F07E000
3F0FE000
3F9FE400
1FFFFE00
1FFFFE00
0FF3FC00
03C0F000
ENDCHAR

STARTCHAR guillemotleft
ENCODING 171
SWIDTH 380 0
DWIDTH 19 0
BBX 21 18 3 3
BITMAP
00C0C0
01E1E0
03C3C0
07C7C0
0F8F80
1F9F80
3F3F00
3E3E00
3E3E00
3E3E00
3E3E00
3E3E00
1E1E00
1E1E00
1E1E00
1E1E00
0E0E00
080800
ENDCHAR

STARTCHAR logicalnot
ENCODING 172
SWIDTH 620 0
DWIDTH 31 0
BBX 27 14 6 9
BITMAP
3FFFFFC0
3FFFFFC0
3FFFFFC0
3FFFFFC0
3FFFFFC0
000007C0
000007C0
000007C0
000007C0
000007C0
000007C0
000007C0
000007C0
000007C0
ENDCHAR

STARTCHAR hyphen
ENCODING 173
SWIDTH 280 0
DWIDTH 14 0
BBX 15 5 2 10
BITMAP
1FFC
1FFC
3FF8
3FF8
3FF8
ENDCHAR

STARTCHAR registered
ENCODING 174
SWIDTH 780 0
DWIDTH 39 0
BBX 38 34 4 0
BITMAP
0001FF0000
000FFFC000
003E01F000
0078003C00
01E0001E00
03C0000700
0300000380
073FFF0180
0E0F8F81C0
0C0F87C0C0
1C0F83E0E0
180F83E060
180F83E070
380F83E030
300F83E030
300F87C030
300F9F8030
300FFE0030
300FBE0030
300F9F0030
380F9F0030
380F8F8070
180F8FC060
1C0F87C060
0C0F83E0C0
0E0FC3F1C0
063FF1F980
0700000380
0380000700
01E0001E00
00F8003C00
003E01F000
000FFFC000
0001FF0000
ENDCHAR

STARTCHAR macron
ENCODING 175
SWIDTH 480 0
DWIDTH 24 0
BBX 22 4 7 30
BITMAP
1FFFF8
1FFFF0
1FFFF0
3FFFE0
ENDCHAR

STARTCHAR degree
ENCODING 176
SWIDTH 400 0
DWIDTH 20 0
BBX 16 14 10 21
BITMAP
07C0
0FF0
1FF8
3C78
783C
701C
701C
701C
701C
783C
3C78
1FF8
0FF0
07C0
ENDCHAR

STARTCHAR plusminus
ENCODING 177
SWIDTH 600 0
DWIDTH 30 0
BBX 27 30 5 2
BITMAP
001F0000
001F0000
001F0000
001F0000
001F0000
001F0000
001F0000
001F0000
001F0000
7FFFFFC0
7FFFFFC0
7FFFFFC0
7FFFFFC0
7FFFFFC0
001F0000
001F0000
001F0000
001F0000
001F0000
001F0000
001F0000
001F0000
001F0000
00000000
00000000
7FFFFFC0
7FFFFFC0
7FFFFFC0
7FFFFFC0
7FFFFFC0
ENDCHAR

STARTCHAR twosuperior
ENCODING 178
SWIDTH 408 0
DWIDTH 20 0
BBX 22 19 4 16
BITMAP
007F80
01FFE0
07FFF0
07C3F8
0F01F8
0F01F8
0E01F8
0E03F0
0007E0
000FC0
003F80
007E00
01F8F0
07E0E0
0FFFE0
3FFFE0
3FFFC0
7FFFC0
000180
ENDCHAR

STARTCHAR threesuperior
ENCODING 179
SWIDTH 408 0
DWIDTH 20 0
BBX 22 18 4 17
BITMAP
007F80
01FFE0
03FFF0
07C3F0
0781F0
0F01F0
0003E0
007FC0
007F00
007FC0
000FE0
3C07E0
3C07E0
3E07E0
3F0FC0
1FFF80
0FFF00
03F800
ENDCHAR

STARTCHAR acute
ENCODING 180
SWIDTH 340 0
DWIDTH 17 0
BBX 14 10 10 28
BITMAP
00E0
01F0
03F8
07F8
0FF8
1FF0
1FE0
3F80
3E00
1800
ENDCHAR

STARTCHAR mu
ENCODING 181
SWIDTH 680 0
DWIDTH 34 0
BBX 35 33 1 -9
BITMAP
001FC07F80
003FC07F80
003FC07F00
003F807F00
003F80FF00
007F80FF00
007F80FF00
007F80FE00
007F01FE00
00FF01FE00
00FF01FE00
00FF01FC00
00FE01FC00
01FE03FC00
01FE03FC00
01FE03F800
01FE03F800
03FC07F800
03FE07F800
03FE1FF800
07FFFFFF00
07FFF7FE00
077FE7FC00
0F7F83F000
0F3E018000
1F00000000
1F00000000
3F00000000
3F00000000
7F00000000
7F00000000
7F00000000
3E00000000
ENDCHAR

STARTCHAR paragraph
ENCODING 182
SWIDTH 680 0
DWIDTH 34 0
BBX 31 44 5 -11
BITMAP
001FFFFC
01FFFFFC
07FFFFC0
0FFFC3C0
0FFFC380
1FFFC380
1FFFC380
3FFFC380
3FFFC380
3FFFC380
3FFFC380
3FFFC380
3FFFC380
3FFFC380
3FFFC380
1FFFC380
1FFFC380
1FFFC380
0FFFC380
07FFC380
03FFC380
00FFC380
000FC380
0001C380
0001C380
0001C380
0001C380
0001C380
0001C380
0001C380
0001C380
0001C380
0001C380
0001C380
0001C380
0001C380
0001C380
0001C380
0001C380
0001C380
0001C380
0001C380
0001C380
0001C380
ENDCHAR

STARTCHAR periodcentered
ENCODING 183
SWIDTH 340 0
DWIDTH 17 0
BBX 13 9 6 13
BITMAP
0780
1FC0
1FE0
3FE0
3FE0
3FE0
3FC0
1FC0
0F00
ENDCHAR

STARTCHAR cedilla
ENCODING 184
SWIDTH 360 0
DWIDTH 18 0
BBX 14 11 -1 -11
BITMAP
0600
0E00
0FC0
0FE0
00F0
00F0
30F0
78F0
7FE0
3FE0
0F80
ENDCHAR

STARTCHAR onesuperior
ENCODING 185
SWIDTH 408 0
DWIDTH 20 0
BBX 17 18 6 17
BITMAP
000E00
03FE00
07FC00
07FC00
007C00
007C00
00F800
00F800
00F800
00F800
01F000
01F000
01F000
01F000
03E000
3FFE00
3FFE00
7FFE00
ENDCHAR

STARTCHAR ordmasculine
ENCODING 186
SWIDTH 440 0
DWIDTH 22 0
BBX 21 15 6 20
BITMAP
01FE00
07FF80
0FFFC0
1FCFC0
3F87E0
3F07E0
7E07E0
7E07E0
7E07E0
7E0FC0
7E0FC0
3F3F80
3FFF00
1FFE00
07F800
ENDCHAR

STARTCHAR guillemotright
ENCODING 187
SWIDTH 380 0
DWIDTH 19 0
BBX 21 18 1 3
BITMAP
038380
03C3C0
03C3C0
03C3C0
03C3C0
03E3E0
03E3E0
03E3E0
03E1E0
03F3F0
07E7E0
07C7C0
0F8F80
1F1F00
1E1E00
3E3E00
1C1C00
080800
ENDCHAR

STARTCHAR onequarter
ENCODING 188
SWIDTH 1020 0
DWIDTH 51 0
BBX 48 35 6 0
BITMAP
000E00000F00
03FE00001E00
07FC00003C00
07FC00007800
007C00007000
007C0000F000
00F80001E000
00F80003C000
00F800078000
00F8000F0000
01F0000E0000
01F0001E0000
01F0003C0000
01F000780000
03E000F00000
3FFE01E00000
3FFE03C00000
7FFE038001F8
0000078003F0
00000F000FF0
00001E001FF0
00003C003FF0
000078007FE0
00007001F3E0
0000F003E3E0
0001E007C3E0
0003C00F87C0
0007800FFFFC
000F001FFFFC
000E001FFFF8
001E00000F80
003C00000F80
007800000F80
00F000000F80
01E000001F00
ENDCHAR

STARTCHAR onehalf
ENCODING 189
SWIDTH 1020 0
DWIDTH 51 0
BBX 47 36 6 -1
BITMAP
001E00000F00
07FE00001E00
07FC00003C00
07FC00007800
007C0000F000
00F80001E000
00F80001C000
00F80003C000
00F800078000
01F0000F0000
01F0001E0000
01F0003C0000
01F000380000
03E000780000
03E000F00000
3FFE01E00000
7FFE03C00000
7FFC07807FC0
00000F00FFF0
00000F03FFF8
00001E03C1FC
00003C0780FC
0000780780FC
0000F00700FC
0001E00301F8
0001E00003F0
0003C00007E0
000780001F80
000F00007F00
001E0000FC78
003C0003F070
0038000FFFF0
0078001FFFF0
00F0003FFFE0
01E0003FFFE0
0000000000C0
ENDCHAR

STARTCHAR threequarters
ENCODING 190
SWIDTH 1020 0
DWIDTH 51 0
BBX 50 35 4 0
BITMAP
007F800001C000
01FFE00003C000
03FFF000078000
07C3F0000F0000
0781F0001E0000
0F01F0003C0000
0003E000380000
007FC000780000
007F0000F00000
007FC001E00000
000FE003C00000
3C07E007800000
3C07E007000000
3E07E00F000000
3F0FC01E000000
1FFF803C000000
0FFF0078003E00
03F800F0007E00
000000E000FE00
000001E003FC00
000003C007FC00
000007800FFC00
00000F001F7C00
00001E007EF800
00001C00F8F800
00003C01F0F800
00007803E0F800
0000F003FFFF00
0001E007FFFF00
0003C007FFFF00
0003800001F000
0007800003E000
000F000003E000
001E000003E000
003C000003E000
ENDCHAR

STARTCHAR questiondown
ENCODING 191
SWIDTH 620 0
DWIDTH 31 0
BBX 29 35 1 -11
BITMAP
00000780
00001FC0
00001FE0
00003FE0
00003FE0
00003FE0
00003FC0
00001FC0
00000F00
00000000
00000000
00003F00
00003E00
00003E00
007FFE00
01FFFE00
07FFFC00
0FFFFC00
1FFFFC00
1FFFFC00
3FFC0000
3FC00000
7F800000
7F800000
7F800000
7F8007C0
7F8007E0
3FC00FE0
3FE01FE0
1FF87FE0
0FFFFFC0
07FFFFC0
03FFFF00
00FFFE00
001FF000
ENDCHAR

STARTCHAR Agrave
ENCODING 192
SWIDTH 720 0
DWIDTH 36 0
BBX 40 47 -1 0
BITMAP
0000008000
000003E000
000007F000
000007F800
000007FC00
000003FC00
000001FE00
000000FF00
0000003F00
0000000E00
0000000000
0000000000
0000000000
000001FE00
000003FE00
000007FE00
000007FE00
00000FFE00
00000FFF00
00001FFF00
00003FFF00
00003FFF00
00007EFF00
0000FEFF00
0000FC7F80
0001FC7F80
0001F87F80
0003F07F80
0007F07F80
0007E07F80
000FE07FC0
001FFFFFC0
001FFFFFC0
003FFFFFC0
003FFFFFC0
007FFFFFC0
00FE003FE0
00FC003FE0
01FC003FE0
01F8001FE0
03F8001FE0
07F8003FF0
3FFF03FFFC
3FFF03FFFC
3FFF03FFFC
7FFE03FFF8
7FFE03FFF8
ENDCHAR

STARTCHAR Aacute
ENCODING 193
SWIDTH 720 0
DWIDTH 36 0
BBX 40 47 -1 0
BITMAP
0000000200
0000000F80
0000001FC0
0000003FC0
0000007FC0
0000007F80
000000FF00
000001FE00
000001F800
000000E000
0000000000
0000000000
0000000000
000001FE00
000003FE00
000007FE00
000007FE00
00000FFE00
00000FFF00
00001FFF00
00003FFF00
00003FFF00
00007EFF00
0000FEFF00
0000FC7F80
0001FC7F80
0001F87F80
0003F07F80
0007F07F80
0007E07F80
000FE07FC0
001FFFFFC0
001FFFFFC0
003FFFFFC0
003FFFFFC0
007FFFFFC0
00FE003FE0
00FC003FE0
01FC003FE0
01F8001FE0
03F8001FE0
07F8003FF0
3FFF03FFFC
3FFF03FFFC
3FFF03FFFC
7FFE03FFF8
7FFE03FFF8
ENDCHAR

STARTCHAR Acircumflex
ENCODING 194
SWIDTH 720 0
DWIDTH 36 0
BBX 40 45 -1 0
BITMAP
0000001C00
0000007E00
000001FF80
000007FFC0
00000FFFF0
00000FC7F0
00000700E0
0000040000
0000000000
0000000000
0000000000
000001FE00
000003FE00
000007FE00
000007FE00
00000FFE00
00000FFF00
00001FFF00
00003FFF00
00003FFF00
00007EFF00
0000FEFF00
0000FC7F80
0001FC7F80
0001F87F80
0003F07F80
0007F07F80
0007E07F80
000FE07FC0
001FFFFFC0
001FFFFFC0
003FFFFFC0
003FFFFFC0
007FFFFFC0
00FE003FE0
00FC003FE0
01FC003FE0
01F8001FE0
03F8001FE0
07F8003FF0
3FFF03FFFC
3FFF03FFFC
3FFF03FFFC
7FFE03FFF8
7FFE03FFF8
ENDCHAR

STARTCHAR Atilde
ENCODING 195
SWIDTH 720 0
DWIDTH 36 0
BBX 40 44 -1 0
BITMAP
000001F000
000007FE70
000007FFF8
00000FFFF0
00000E3FE0
0000040FC0
0000000000
0000000000
0000000000
0000000000
000001FE00
000003FE00
000007FE00
000007FE00
00000FFE00
00000FFF00
00001FFF00
00003FFF00
00003FFF00
00007EFF00
0000FEFF00
0000FC7F80
0001FC7F80
0001F87F80
0003F07F80
0007F07F80
0007E07F80
000FE07FC0
001FFFFFC0
001FFFFFC0
003FFFFFC0
003FFFFFC0
007FFFFFC0
00FE003FE0
00FC003FE0
01FC003FE0
01F8001FE0
03F8001FE0
07F8003FF0
3FFF03FFFC
3FFF03FFFC
3FFF03FFFC
7FFE03FFF8
7FFE03FFF8
ENDCHAR

STARTCHAR Adieresis
ENCODING 196
SWIDTH 720 0
DWIDTH 36 0
BBX 40 46 -1 0
BITMAP
000003C078
00000FE1FC
00000FE1FC
00001FE3FC
00001FE3FC
00001FC3F8
00001FC3F8
00000F01F0
0000000000
0000000000
0000000000
0000000000
000001FE00
000003FE00
000003FE00
000007FF00
000007FF00
00000FFF00
00001FFF00
00001FFF00
00003F7F00
00007F7F80
00007E7F80
0000FC7F80
0000FC7F80
0001F87F80
0003F87F80
0003F07FC0
0007F03FC0
000FE03FC0
000FFFFFC0
001FFFFFC0
001FFFFFC0
003FFFFFE0
007FFFFFE0
007E001FE0
00FE001FE0
01FC001FE0
01FC001FE0
03F8001FF0
07F8001FF0
3FFF01FFFC
3FFF01FFFC
3FFF03FFFC
3FFF03FFFC
3FFE03FFF8
ENDCHAR

STARTCHAR Aring
ENCODING 197
SWIDTH 720 0
DWIDTH 36 0
BBX 40 48 -1 0
BITMAP
0000003E00
0000007F00
000000FF80
000001E3C0
000001C1C0
000001C1C0
000001C1C0
000001E3C0
000000FF80
0000007F00
0000001E00
0000000000
0000000000
0000000000
000001FE00
000003FE00
000007FE00
000007FF00
00000FFF00
00000FFF00
00001FFF00
00003FFF00
00003FFF00
00007EFF80
00007E7F80
0000FC7F80
0001FC7F80
0001F87F80
0003F87F80
0007F07FC0
0007E07FC0
000FE03FC0
000FFFFFC0
001FFFFFC0
003FFFFFC0
003FFFFFE0
007FFFFFE0
00FE003FE0
00FE001FE0
01FC001FE0
01F8001FE0
03F8001FF0
07F8003FF0
3FFF01FFFC
3FFF03FFFC
3FFF03FFFC
3FFF03FFFC
7FFE03FFF8
ENDCHAR

STARTCHAR AE
ENCODING 198
SWIDTH 1140 0
DWIDTH 57 0
BBX 63 34 -1 0
BITMAP
00007FFFFFFFFFE0
00007FFFFFFFFFE0
00007FFFFFFFFFE0
00007FFFFFFFFFF0
0000FFFFFFFFFFF0
00000FE03FC01FF0
00000FE03FC003F8
00001FC07FC001F8
00001F807F8000F8
00003F807F81F0FC
00007F007F81E078
00007F007F81E040
0000FE00FF83E000
0001FC00FF07E000
0001FC00FFFFE000
0003F800FFFFC000
0007FFFFFFFFC000
0007FFFFFFFFC000
000FFFFFFFFFC000
001FFFFFFE0F8000
001FFFFFFE0F8080
003F8003FE0F80E0
003F8003FC0F81F0
007F0003FC0F81F0
00FF0003FC0003E0
00FE0007FC0007E0
01FC0007F8001FC0
03FC0007F8003FC0
07FC000FF801FF80
3FFF80FFFFFFFF80
3FFF80FFFFFFFF00
3FFF80FFFFFFFF00
3FFF00FFFFFFFE00
7FFF01FFFFFFFE00
ENDCHAR

STARTCHAR Ccedilla
ENCODING 199
SWIDTH 700 0
DWIDTH 35 0
BBX 37 46 3 -11
BITMAP
00007F8000
0003FFF3C0
000FFFFFC0
003FFFFFC0
007FFFFFC0
00FFE07FC0
01FFC01FC0
03FF000FE0
07FE000FE0
07FC0007E0
0FFC0007E0
0FF80003E0
1FF80003E0
1FF00003E0
1FF0000000
3FF0000000
3FE0000000
3FE0000000
3FE0000000
3FE0000000
3FE0000000
3FE0000000
3FE0000000
3FF0000000
3FF0000600
1FF0000F00
1FF8001F80
0FFC003F80
0FFE007F00
07FF01FE00
03FFFFFC00
01FFFFF800
00FFFFF000
007FFFC000
001FFF0000
0007F80000
0001800000
0003800000
0003F00000
0001F80000
00003C0000
00003C0000
001E3C0000
001FF80000
000FF80000
0003E00000
ENDCHAR

STARTCHAR Egrave
ENCODING 200
SWIDTH 720 0
DWIDTH 36 0
BBX 41 47 0 0
BITMAP
000006000000
00001F800000
00001FC00000
00001FE00000
00001FF00000
00000FF00000
000007F80000
000003FC0000
000000FC0000
000000380000
000000000000
000000000000
000000000000
007FFFFFF800
007FFFFFF800
007FFFFFF800
007FFFFFFC00
00FFFFFFFC00
000FF007FC00
000FF000FE00
000FF0007E00
000FF0003E00
001FF07C3F00
001FE07C1E00
001FE0781000
001FE0F80000
003FE1F80000
003FFFF80000
003FFFF00000
003FFFF00000
003FFFF00000
007FFFF00000
007F83F00000
007F81E03000
007F81E03C00
00FF83E07C00
00FF03E0FC00
00FF0000F800
00FF0001F800
00FF0007F800
01FF000FF000
01FF007FF000
1FFFFFFFE000
3FFFFFFFE000
3FFFFFFFC000
3FFFFFFFC000
3FFFFFFF8000
ENDCHAR

STARTCHAR Eacute
ENCODING 201
SWIDTH 720 0
DWIDTH 36 0
BBX 41 47 0 0
BITMAP
000000018000
00000007C000
0000000FE000
0000001FE000
0000003FE000
0000003FC000
0000007F8000
000000FE0000
000000FC0000
000000600000
000000000000
000000000000
000000000000
007FFFFFF800
007FFFFFF800
007FFFFFF800
007FFFFFFC00
00FFFFFFFC00
000FF007FC00
000FF000FE00
000FF0007E00
000FF0003E00
001FF07C3F00
001FE07C1E00
001FE0781000
001FE0F80000
003FE1F80000
003FFFF80000
003FFFF00000
003FFFF00000
003FFFF00000
007FFFF00000
007F83F00000
007F81E03000
007F81E03C00
00FF83E07C00
00FF03E07C00
00FF0000FC00
00FF0001F800
00FF0003F800
01FF000FF000
01FF007FF000
1FFFFFFFE000
3FFFFFFFE000
3FFFFFFFC000
3FFFFFFFC000
3FFFFFFF8000
ENDCHAR

STARTCHAR Ecircumflex
ENCODING 202
SWIDTH 720 0
DWIDTH 36 0
BBX 41 45 0 0
BITMAP
000000700000
000001FC0000
000007FE0000
00001FFF8000
00003FFFC000
00003F0FC000
00001C038000
000010008000
000000000000
000000000000
000000000000
007FFFFFF800
007FFFFFF800
007FFFFFF800
007FFFFFFC00
00FFFFFFFC00
000FF007FC00
000FF000FE00
000FF0007E00
000FF0003E00
001FF07C3F00
001FE07C1E00
001FE0781000
001FE0F80000
003FE1F80000
003FFFF80000
003FFFF00000
003FFFF00000
003FFFF00000
007FFFF00000
007F83F00000
007F81E03000
007F81E03C00
00FF83E07C00
00FF03E07C00
00FF0000FC00
00FF0001F800
00FF0003F800
01FF000FF000
01FF007FF000
1FFFFFFFE000
3FFFFFFFE000
3FFFFFFFC000
3FFFFFFFC000
3FFFFFFF8000
ENDCHAR

STARTCHAR Edieresis
ENCODING 203
SWIDTH 720 0
DWIDTH 36 0
BBX 42 46 0 0
BITMAP
00000F01E000
00003F87F000
00003F87F000
00007F8FF000
00007F8FF000
00007F0FE000
00007F0FE000
00003C078000
000000000000
000000000000
000000000000
000000000000
007FFFFFF800
007FFFFFF800
007FFFFFFC00
007FFFFFFC00
00FFFFFFFC00
000FF807FE00
000FF000FE00
000FF0007E00
000FF0003F00
000FF07C1F00
001FF07C1E00
001FE07C1000
001FE0F80000
001FE1F80000
003FFFF80000
003FFFF80000
003FFFF00000
003FFFF00000
003FFFF00000
007FC3F00000
007F81F03000
007F81E03C00
007F81E07E00
00FF83E07C00
00FF0000FC00
00FF0001F800
00FF0003F800
01FF000FF000
01FF007FF000
1FFFFFFFE000
1FFFFFFFE000
3FFFFFFFC000
3FFFFFFFC000
3FFFFFFF8000
ENDCHAR

STARTCHAR Igrave
ENCODING 204
SWIDTH 380 0
DWIDTH 19 0
BBX 27 46 0 0
BITMAP
0007C000
000FE000
000FF000
000FF000
000FF800
0007FC00
0001FE00
00007E00
00001C00
00000000
00000000
00000000
007FFF80
007FFF80
00FFFF80
00FFFF80
00FFFF00
001FF800
000FF000
001FF000
001FE000
001FE000
001FE000
001FE000
003FE000
003FC000
003FC000
003FC000
007FC000
007F8000
007F8000
007F8000
00FF8000
00FF8000
00FF0000
00FF0000
00FF0000
01FF0000
01FE0000
01FE0000
03FE0000
3FFFE000
3FFFE000
3FFFC000
3FFFC000
7FFFC000
ENDCHAR

STARTCHAR Iacute
ENCODING 205
SWIDTH 380 0
DWIDTH 19 0
BBX 27 46 0 0
BITMAP
00003E00
00007E00
0000FF00
0001FE00
0003FE00
0003FC00
0007F800
000FE000
00078000
00020000
00000000
00000000
007FFF80
007FFF80
00FFFF80
00FFFF80
00FFFF00
001FF800
000FF000
001FF000
001FE000
001FE000
001FE000
001FE000
003FE000
003FC000
003FC000
003FC000
007FC000
007F8000
007F8000
007F8000
00FF8000
00FF8000
00FF0000
00FF0000
00FF0000
01FF0000
01FE0000
01FE0000
03FE0000
3FFFE000
3FFFE000
3FFFC000
3FFFC000
7FFFC000
ENDCHAR

STARTCHAR Icircumflex
ENCODING 206
SWIDTH 380 0
DWIDTH 19 0
BBX 29 45 0 0
BITMAP
00003800
0000FC00
0003FE00
000FFF80
001FFFC0
001FCFE0
001E03C0
00080080
00000000
00000000
00000000
007FFF80
007FFF80
00FFFF80
00FFFF80
00FFFF00
001FF800
000FF000
001FF000
001FE000
001FE000
001FE000
001FE000
003FE000
003FC000
003FC000
003FC000
007FC000
007F8000
007F8000
007F8000
00FF8000
00FF8000
00FF0000
00FF0000
00FF0000
01FF0000
01FE0000
01FE0000
03FE0000
3FFFE000
3FFFE000
3FFFC000
3FFFC000
7FFFC000
ENDCHAR

STARTCHAR Idieresis
ENCODING 207
SWIDTH 380 0
DWIDTH 19 0
BBX 31 45 -1 0
BITMAP
000780F0
001FC3F8
001FC3F8
003FC7F8
003FC7F8
003F87F0
001F03E0
000E01C0
00000000
00000000
00000000
007FFFC0
007FFFC0
007FFF80
007FFF80
00FFFF80
000FF800
000FF800
000FF000
000FF000
000FF000
001FF000
001FE000
001FE000
001FE000
003FE000
003FC000
003FC000
003FC000
003FC000
007FC000
007F8000
007F8000
007F8000
00FF8000
00FF0000
00FF0000
00FF0000
01FF0000
01FF0000
1FFFE000
1FFFE000
3FFFE000
3FFFE000
3FFFC000
ENDCHAR

STARTCHAR Gbreve
ENCODING 208
SWIDTH 760 0
DWIDTH 38 0
BBX 41 44 3 -1
BITMAP
0000F0078000
00007C1F0000
00007FFF0000
00003FFE0000
00001FFC0000
000007F00000
000000000000
000000000000
00003F800000
0003FFF1E000
000FFFFFE000
001FFFFFE000
007FFFFFE000
00FFF07FE000
01FFC01FE000
03FF800FE000
03FF0007E000
07FE0007E000
0FFC0003E000
0FF80003E000
1FF80003F000
1FF000000000
1FF000000000
3FF000000000
3FF000000000
3FE003FFFE00
3FE003FFFE00
3FE003FFFC00
3FE003FFFC00
3FE007FFFC00
3FE0007FC000
3FE0003FC000
3FF0007F8000
1FF0007F8000
1FF8007F8000
1FF8007F8000
0FFC00FF0000
07FE01FF0000
07FFC7FF0000
03FFFFFF0000
01FFFFFE0000
00FFFFFE0000
003FFF3E0000
000FFC000000
ENDCHAR

STARTCHAR Ntilde
ENCODING 209
SWIDTH 740 0
DWIDTH 37 0
BBX 45 44 0 0
BITMAP
000001F00000
000007FE7000
000007FFF800
00000FFFF000
00000E3FE000
0000040FC000
000000000000
000000000000
000000000000
000000000000
007FFE03FFF0
007FFE07FFE0
007FFE07FFE0
00FFFF07FFE0
00FFFF07FFE0
000FFF00FE00
000FFF00FC00
000FFF80FC00
000FFF80FC00
001FFF80F800
001FBFC1F800
001FBFC1F800
001F3FC1F800
003F1FE1F800
003F1FE3F000
003F1FE3F000
003E0FE3F000
003E0FF3F000
007E0FF3E000
007E0FF7E000
007C07FFE000
007C07FFE000
00FC07FFC000
00FC03FFC000
00FC03FFC000
00F803FFC000
01F801FFC000
01F801FF8000
01F801FF8000
1FFF80FF8000
3FFF00FF8000
3FFF00FF0000
3FFF00FF0000
3FFF007F0000
ENDCHAR

STARTCHAR Ograve
ENCODING 210
SWIDTH 760 0
DWIDTH 38 0
BBX 40 48 3 -1
BITMAP
0000780000
0000FE0000
0000FF0000
0000FF0000
0000FF8000
00007FC000
00003FE000
00000FE000
000003E000
000000C000
0000000000
0000000000
00007FE000
0003FFFC00
000FFFFE00
001FFFFF80
007FFFFFC0
00FFF0FFE0
01FFC03FE0
03FF001FF0
03FE001FF8
07FE000FF8
0FFC000FF8
0FF80007FC
1FF80007FC
1FF80007FC
1FF00007FC
3FF00007FC
3FF00007FC
3FF00007FC
3FE0000FFC
3FE0000FFC
3FE0000FFC
3FE0000FF8
3FE0001FF8
3FE0001FF8
3FF0001FF0
1FF0003FF0
1FF0003FE0
1FF8007FE0
0FF800FFC0
07FC01FF80
07FF07FF00
03FFFFFE00
01FFFFFC00
007FFFF000
001FFFC000
0003FE0000
ENDCHAR

STARTCHAR Oacute
ENCODING 211
SWIDTH 760 0
DWIDTH 38 0
BBX 40 48 3 -1
BITMAP
0000000F00
0000001F80
0000003F80
0000007F80
000000FF80
000001FF00
000001FE00
000003F800
000003E000
0000018000
0000000000
0000000000
00007FE000
0003FFFC00
000FFFFE00
001FFFFF80
007FFFFFC0
00FFF0FFE0
01FFC03FE0
03FF001FF0
03FE001FF8
07FE000FF8
0FFC000FF8
0FF80007FC
1FF80007FC
1FF80007FC
1FF00007FC
3FF00007FC
3FF00007FC
3FF00007FC
3FE0000FFC
3FE0000FFC
3FE0000FFC
3FE0000FF8
3FE0001FF8
3FE0001FF8
3FF0001FF0
1FF0003FF0
1FF0003FE0
1FF8007FE0
0FF800FFC0
07FC01FF80
07FF07FF00
03FFFFFE00
01FFFFFC00
007FFFF000
001FFFC000
0003FE0000
ENDCHAR

STARTCHAR Ocircumflex
ENCODING 212
SWIDTH 760 0
DWIDTH 38 0
BBX 40 47 3 -1
BITMAP
0000008000
000003E000
00000FF000
00003FFC00
0000FFFE00
0000FFFF80
0000FC1F00
0000600600
0000000000
0000000000
0000000000
00007FE000
0003FFFC00
000FFFFE00
001FFFFF80
007FFFFFC0
00FFF0FFE0
01FFC03FE0
03FF001FF0
03FE001FF8
07FE000FF8
0FFC000FF8
0FF80007FC
1FF80007FC
1FF80007FC
1FF00007FC
3FF00007FC
3FF00007FC
3FF00007FC
3FE0000FFC
3FE0000FFC
3FE0000FFC
3FE0000FF8
3FE0001FF8
3FE0001FF8
3FF0001FF0
1FF0003FF0
1FF0003FE0
1FF8007FE0
0FF800FFC0
07FC01FF80
07FF07FF00
03FFFFFE00
01FFFFFC00
007FFFF000
001FFFC000
0003FE0000
ENDCHAR

STARTCHAR Otilde
ENCODING 213
SWIDTH 760 0
DWIDTH 38 0
BBX 40 45 3 -1
BITMAP
00001F0000
00007FE700
0000FFFF80
0000FFFF00
0000E3FE00
000040FC00
0000000000
0000000000
0000000000
00007FE000
0003FFFC00
000FFFFE00
001FFFFF80
007FFFFFC0
00FFF0FFE0
01FFC03FE0
03FF001FF0
03FE001FF8
07FE000FF8
0FFC000FF8
0FF80007FC
1FF80007FC
1FF80007FC
1FF00007FC
3FF00007FC
3FF00007FC
3FF00007FC
3FE0000FFC
3FE0000FFC
3FE0000FFC
3FE0000FF8
3FE0001FF8
3FE0001FF8
3FF0001FF0
1FF0003FF0
1FF0003FE0
1FF8007FE0
0FF800FFC0
07FC01FF80
07FF07FF00
03FFFFFE00
01FFFFFC00
007FFFF000
001FFFC000
0003FE0000
ENDCHAR

STARTCHAR Odieresis
ENCODING 214
SWIDTH 760 0
DWIDTH 38 0
BBX 40 47 3 -1
BITMAP
00003C0780
0000FE1FC0
0000FE1FC0
0001FE3FC0
0001FE3FC0
0001FC3F80
0001FC1F80
0000F01E00
0000000000
0000000000
0000000000
00003FE000
0003FFFC00
000FFFFE00
001FFFFF80
007FFFFFC0
00FFF0FFE0
01FFC03FE0
03FF801FF0
03FF000FF8
07FE000FF8
0FFC000FF8
0FFC0007FC
1FF80007FC
1FF80007FC
1FF00007FC
3FF00007FC
3FF00007FC
3FF00007FC
3FF00007FC
3FE0000FFC
3FE0000FFC
3FE0000FF8
3FE0000FF8
3FF0001FF8
3FF0001FF0
1FF0003FF0
1FF0003FE0
0FF8007FE0
0FF800FFC0
07FE01FF80
07FF87FF00
03FFFFFE00
01FFFFFC00
007FFFF000
001FFFC000
0003FE0000
ENDCHAR

STARTCHAR multiply
ENCODING 215
SWIDTH 600 0
DWIDTH 30 0
BBX 26 22 6 6
BITMAP
0C000C00
1E001E00
3F003F00
3F807F00
1FC0FE00
0FE1FC00
07F3F800
03FFF000
01FFE000
00FFC000
007F8000
007F8000
00FFC000
01FFE000
03FFF000
07F3F800
0FE1FC00
1FC0FE00
3F807F00
3F003F00
1E001E00
0C000C00
ENDCHAR

STARTCHAR Oslash
ENCODING 216
SWIDTH 760 0
DWIDTH 38 0
BBX 46 36 0 -1
BITMAP
00000FFC0020
00007FFF8070
0001FFFFC0F8
0007FFFFF3F0
000FFFFFFFE0
001FFE1FFF80
003FF007FF00
007FE003FE00
007FC003FF00
00FFC001FF00
01FF8003FF00
01FF000FFF80
03FF001FFF80
03FF003FFF80
03FE007CFF80
07FE01F8FF80
07FE03F0FF80
07FE07E0FF80
07FC0F81FF80
07FC1F01FF80
07FC7E01FF80
07FCFC01FF00
07FDF003FF00
07FFE003FF00
07FFC003FE00
03FF8007FE00
03FE0007FC00
01FF000FFC00
01FF001FF800
03FF803FF000
07FFE0FFE000
0FFFFFFFC000
1F3FFFFF8000
7E0FFFFE0000
3803FFF80000
1000FFC00000
ENDCHAR

STARTCHAR Ugrave
ENCODING 217
SWIDTH 740 0
DWIDTH 37 0
BBX 40 47 5 -1
BITMAP
00007C0000
0000FE0000
0000FF0000
0000FF8000
00007F8000
00003FC000
00001FE000
000007E000
000001C000
0000004000
0000000000
0000000000
1FFFE07FFC
1FFFE0FFFC
3FFFE0FFFC
3FFFE0FFFC
3FFFC0FFFC
07FE001FC0
03FC001F80
07FC001F80
07F8001F80
07F8001F00
07F8003F00
07F8003F00
0FF8003F00
0FF0003E00
0FF0007E00
0FF0007E00
1FF0007E00
1FE0007C00
1FE0007C00
1FE000FC00
1FE000FC00
3FE000FC00
3FC000F800
3FC001F800
3FC001F800
3FC003F000
3FE003F000
3FF007E000
1FF81FE000
1FFFFFC000
0FFFFF8000
07FFFF0000
03FFFE0000
00FFF80000
001F800000
ENDCHAR

STARTCHAR Uacute
ENCODING 218
SWIDTH 740 0
DWIDTH 37 0
BBX 40 47 5 -1
BITMAP
000000F800
000001F800
000003F800
000007F800
00000FF800
00001FF000
00001FC000
00003F0000
00001C0000
0000000000
0000000000
0000000000
1FFFE07FFC
1FFFE0FFFC
3FFFE0FFFC
3FFFE0FFFC
3FFFC0FFFC
07FE001FC0
03FC001F80
07FC001F80
07F8001F80
07F8001F00
07F8003F00
07F8003F00
0FF8003F00
0FF0003E00
0FF0007E00
0FF0007E00
1FF0007E00
1FE0007C00
1FE0007C00
1FE000FC00
1FE000FC00
3FE000FC00
3FC000F800
3FC001F800
3FC001F800
3FC003F000
3FE003F000
3FF007E000
1FF81FE000
1FFFFFC000
0FFFFF8000
07FFFF0000
03FFFE0000
00FFF80000
001F800000
ENDCHAR

STARTCHAR Ucircumflex
ENCODING 219
SWIDTH 740 0
DWIDTH 37 0
BBX 40 46 5 -1
BITMAP
0000018000
000007E000
00001FF000
00007FFC00
0001FFFE00
0000FC7F00
0000F01E00
0000400400
0000000000
0000000000
0000000000
1FFFE07FFC
1FFFE0FFFC
3FFFE0FFFC
3FFFE0FFFC
3FFFC0FFFC
07FE001FC0
03FC001F80
07FC001F80
07F8001F80
07F8001F00
07F8003F00
07F8003F00
0FF8003F00
0FF0003E00
0FF0007E00
0FF0007E00
1FF0007E00
1FE0007C00
1FE0007C00
1FE000FC00
1FE000FC00
3FE000FC00
3FC000F800
3FC001F800
3FC001F800
3FC003F000
3FE003F000
3FF007E000
1FF81FE000
1FFFFFC000
0FFFFF8000
07FFFF0000
03FFFE0000
00FFF80000
001F800000
ENDCHAR

STARTCHAR Udieresis
ENCODING 220
SWIDTH 740 0
DWIDTH 37 0
BBX 40 46 6 -1
BITMAP
0000780F00
0001FC3F80
0001FC3F80
0003FC7F80
0003FC7F80
0003F87F00
0001F03E00
0000E01C00
0000000000
0000000000
0000000000
1FFFE0FFFC
1FFFE0FFFC
3FFFE0FFFC
3FFFC0FFFC
3FFFC1FFF8
07FC001F80
03FC001F80
07FC001F80
07F8001F00
07F8003F00
07F8003F00
07F8003F00
0FF0003E00
0FF0007E00
0FF0007E00
0FF0007E00
1FF0007E00
1FE0007C00
1FE000FC00
1FE000FC00
1FE000FC00
3FC000F800
3FC001F800
3FC001F800
3FC001F800
3FC003F000
3FE007F000
3FE00FE000
1FF81FE000
1FFFFFC000
0FFFFF8000
07FFFF0000
03FFFE0000
00FFF80000
001F800000
ENDCHAR

STARTCHAR Idotaccent
ENCODING 221
SWIDTH 380 0
DWIDTH 19 0
BBX 27 45 0 0
BITMAP
00003C00
0000FE00
0000FE00
0001FE00
0001FE00
0001FC00
0001FC00
0000F000
00000000
00000000
00000000
007FFF80
007FFF80
00FFFF80
00FFFF80
00FFFF80
000FF800
000FF000
000FF000
001FE000
001FE000
001FE000
001FE000
003FE000
003FC000
003FC000
003FC000
007FC000
007F8000
007F8000
007F8000
007F8000
00FF8000
00FF0000
00FF0000
00FF0000
01FF0000
01FE0000
01FE0000
03FE0000
3FFFE000
3FFFE000
3FFFC000
3FFFC000
7FFFC000
ENDCHAR

STARTCHAR Scedilla
ENCODING 222
SWIDTH 700 0
DWIDTH 35 0
BBX 36 46 3 -11
BITMAP
0003FF0000
001FFFC780
003FFFF780
00FFFFFFC0
01FFFFFFC0
01FF07FFC0
03FC00FFC0
03F8007FC0
07F8003FC0
07F8001FC0
07FC000FC0
07FC0007C0
07FF8007C0
03FFF00000
03FFFE0000
01FFFFC000
01FFFFF000
007FFFF800
003FFFFC00
000FFFFE00
0003FFFF00
3E003FFF00
3E0007FF80
3F0001FF80
3F80007F80
3F80007F80
3FC0007F80
3FE0007F80
3FF8007F00
3FFC00FF00
3FFF87FE00
3FFFFFFC00
3E7FFFF800
3C3FFFF000
3C0FFFC000
0000FE0000
0000E00000
0000FC0000
0000FE0000
00000F0000
00000F0000
00070F0000
00078F0000
0007FE0000
0003FC0000
0000F00000
ENDCHAR

STARTCHAR germandbls
ENCODING 223
SWIDTH 660 0
DWIDTH 33 0
BBX 45 46 -8 -11
BITMAP
0000000FF800
0000007FFE00
000000FFFF80
000003FFFFC0
000007FFFFC0
000007FC3FE0
00000FF01FE0
00000FF00FE0
00001FE01FE0
00001FE0FFE0
00001FC3FFC0
0001FFC7FFC0
0001FFCFFF00
0003FFCFE000
0003FFDFC000
0003FF9FE000
00007F9FE000
00007F9FF000
00007F9FF800
00007F0FFC00
00007F07FE00
0000FF03FF00
0000FF03FF80
0000FE01FF80
0000FE00FFC0
0000FE007FC0
0001FE003FC0
0001FEF01FC0
0001FDF81FC0
0001FDFC1FC0
0003FDFE3F80
0003FDFFFF00
0003F8FFFF00
0003F8FFFE00
0003F83FF800
0007F80FC000
0007F0000000
0007F0000000
0E07F0000000
1F0FE0000000
3F8FE0000000
3FFFC0000000
3FFF80000000
1FFF00000000
0FFE00000000
07F000000000
ENDCHAR

STARTCHAR agrave
ENCODING 224
SWIDTH 680 0
DWIDTH 34 0
BBX 36 39 2 -1
BITMAP
0000E00000
0001F00000
0003F80000
0003FC0000
0003FE0000
0001FE0000
0000FF0000
00003F8000
00000F8000
0000030000
0000000000
0000000000
0000000000
0007F00000
001FFC7E00
007FFFFE00
00FFFFFE00
01FFFFFC00
03FF0FFC00
07FC03FC00
0FF803FC00
0FF007F800
1FF007F800
1FE007F800
3FE007F800
3FE00FF000
3FE00FF000
3FC01FF000
3FC01FF000
3FC03FF000
3FC07FE000
3FE0FFE000
3FF1FFE100
1FFFFFE780
1FFFFFFF80
0FFFEFFFC0
07FFCFFF80
03FF07FE00
00FC03F800
ENDCHAR

STARTCHAR aacute
ENCODING 225
SWIDTH 680 0
DWIDTH 34 0
BBX 36 39 2 -1
BITMAP
000000E000
000001F000
000003F800
000007F800
00000FF000
00001FF000
00001FE000
00003F8000
00003E0000
0000180000
0000000000
0000000000
0000000000
0007F00000
001FFC7E00
007FFFFE00
00FFFFFE00
01FFFFFC00
03FF0FFC00
07FC03FC00
0FF803FC00
0FF007F800
1FF007F800
1FE007F800
3FE007F800
3FE00FF000
3FE00FF000
3FC01FF000
3FC01FF000
3FC03FF000
3FC07FE000
3FE0FFE000
3FF1FFE100
1FFFFFE780
1FFFFFFF80
0FFFEFFFC0
07FFCFFF80
03FF07FE00
00FC03F800
ENDCHAR

STARTCHAR acircumflex
ENCODING 226
SWIDTH 680 0
DWIDTH 34 0
BBX 36 37 2 -1
BITMAP
000003C000
00000FE000
00003FF800
0000FFFC00
0001FFFF00
0000F87E00
0000E00C00
0000000000
0000000000
0000000000
0000000000
0007F00000
001FFC7E00
007FFFFE00
00FFFFFE00
01FFFFFC00
03FF0FFC00
07FC03FC00
0FF803FC00
0FF007F800
1FF007F800
1FE007F800
3FE007F800
3FE00FF000
3FE00FF000
3FC01FF000
3FC01FF000
3FC03FF000
3FC07FE000
3FE0FFE000
3FF1FFE100
1FFFFFE780
1FFFFFFF80
0FFFEFFFC0
07FFCFFF80
03FF07FE00
00FC03F800
ENDCHAR

STARTCHAR atilde
ENCODING 227
SWIDTH 680 0
DWIDTH 34 0
BBX 36 36 2 -1
BITMAP
00003E0000
00007FC600
0000FFFF00
0001FFFE00
0001C7FC00
000081F800
0000000000
0000000000
0000000000
0000000000
0007F00000
001FFC7E00
007FFFFE00
00FFFFFE00
01FFFFFC00
03FF0FFC00
07FC03FC00
0FF803FC00
0FF007F800
1FF007F800
1FE007F800
3FE007F800
3FE00FF000
3FE00FF000
3FC01FF000
3FC01FF000
3FC03FF000
3FC07FE000
3FE0FFE000
3FF1FFE100
1FFFFFE780
1FFFFFFF80
0FFFEFFFC0
07FFCFFF80
03FF07FE00
00FC03F800
ENDCHAR

STARTCHAR adieresis
ENCODING 228
SWIDTH 680 0
DWIDTH 34 0
BBX 36 37 2 -1
BITMAP
0000780F00
0001FC3F80
0001FC3F80
0003FC7F80
0003FC7F80
0003F87F00
0001F83F00
0001E03C00
0000000000
0000000000
0000000000
0007F00000
001FFC7E00
007FFFFE00
00FFFFFE00
01FFFFFC00
03FF0FFC00
07FC03FC00
0FF803FC00
0FF007F800
1FF007F800
1FE007F800
3FE007F800
3FE00FF000
3FE00FF000
3FC01FF000
3FC01FF000
3FC03FF000
3FC07FE000
3FE0FFE000
3FF1FFE100
1FFFFFE780
1FFFFFFF80
0FFFEFFFC0
07FFCFFF80
03FF07FE00
00FC03F800
ENDCHAR

STARTCHAR aring
ENCODING 229
SWIDTH 680 0
DWIDTH 34 0
BBX 36 40 3 -1
BITMAP
000007C000
00000FE000
00001FF000
00003C7800
0000383800
0000383800
0000383800
00003C7800
00001FF000
00000FE000
0000038000
0000000000
0000000000
0000000000
0003E00000
001FFC7E00
007FFFFE00
00FFFFFE00
01FFFFFC00
03FF0FFC00
07FC07FC00
0FF803FC00
0FF007F800
1FF007F800
1FE007F800
3FE00FF800
3FE00FF000
3FC00FF000
3FC01FF000
3FC01FF000
3FC03FF000
3FC07FE000
3FE0FFE000
3FF1FFE100
1FFFFFE780
1FFFFFFF80
0FFFFFFFC0
07FFCFFF80
03FF07FE00
00FC03F800
ENDCHAR

STARTCHAR ae
ENCODING 230
SWIDTH 880 0
DWIDTH 44 0
BBX 44 26 3 -1
BITMAP
0007F001FC00
003FFE0FFF00
00FFFFBFFF80
03FFFFFFFFC0
03FFFFFFFFE0
07F83FFE0FE0
07F01FFC0FE0
07F01FF80FE0
07E01FF01FE0
03C01FE03FC0
01801FE1FFC0
001FFFFFFF80
01FFFFFFFF00
07FFFFFFFC00
0FFFFFFFE000
1FF83FE00000
3FC03FC00000
3F807FC00200
7F807FC00700
7F80FFE01F00
7FC3FFF8FF80
7FFFFFFFFF80
3FFFEFFFFF00
1FFF87FFFC00
0FFE03FFF000
07F800FF8000
ENDCHAR

STARTCHAR ccedilla
ENCODING 231
SWIDTH 560 0
DWIDTH 28 0
BBX 29 37 3 -12
BITMAP
0007FC00
001FFF00
007FFF80
01FFFFC0
03FFFFE0
07FE3FE0
0FFC1FE0
0FF81FE0
1FF01FE0
1FE00FC0
3FE00780
3FE00000
3FC00000
7FC00000
7FC00000
7FC00000
7FC00000
7FC00000
3FC00700
3FE01F80
3FF8FF80
1FFFFF80
0FFFFF00
07FFFC00
03FFF000
00FF8000
00180000
00380000
003F0000
003F8000
0003C000
0003C000
00C3C000
01E3C000
01FF8000
00FF8000
003E0000
ENDCHAR

STARTCHAR egrave
ENCODING 232
SWIDTH 560 0
DWIDTH 28 0
BBX 28 39 3 -1
BITMAP
000C0000
001F0000
003F8000
003FC000
003FE000
001FE000
000FF000
0003F800
0001F800
00007000
00000000
00000000
00000000
0001FC00
000FFF00
007FFF80
00FFFFC0
01FFFFE0
07FE0FE0
07FC0FE0
0FF80FE0
1FF01FE0
1FE03FC0
3FE7FF80
3FFFFF00
3FFFFE00
7FFFF800
7FFF8000
7FC00000
7FC00000
7FC00300
3FC00F00
3FE01F80
3FF8FFC0
1FFFFF00
0FFFFE00
0FFFFC00
03FFF000
00FF8000
ENDCHAR

STARTCHAR eacute
ENCODING 233
SWIDTH 560 0
DWIDTH 28 0
BBX 28 39 3 -1
BITMAP
00000600
00001F80
00003F80
00003F80
00007F80
0000FF00
0001FE00
0001FC00
0003F000
0001C000
00000000
00000000
00000000
0001FC00
000FFF00
003FFF80
00FFFFC0
01FFFFE0
03FE0FE0
07FC0FE0
0FF80FE0
1FF01FE0
1FE03FC0
3FE3FF80
3FFFFF80
3FFFFE00
7FFFF800
7FFFC000
7FC00000
7FC00000
7FC00200
3FC00F00
3FE01F80
3FF8FFC0
1FFFFF00
0FFFFE00
0FFFFC00
03FFF000
00FF8000
ENDCHAR

STARTCHAR ecircumflex
ENCODING 234
SWIDTH 560 0
DWIDTH 28 0
BBX 29 37 3 -1
BITMAP
00003C00
0000FE00
0001FF80
0007FFC0
001FFFE0
000FC7E0
000E01E0
00000040
00000000
00000000
00000000
0001FC00
000FFF00
007FFF80
00FFFFC0
01FFFFE0
07FE0FE0
07FC0FE0
0FF80FE0
1FF01FE0
1FE03FC0
3FE7FF80
3FFFFF00
3FFFFE00
7FFFF800
7FFF8000
7FC00000
7FC00000
7FC00300
3FC00F00
3FE01F80
3FF8FFC0
1FFFFF00
0FFFFE00
0FFFFC00
03FFF000
00FF8000
ENDCHAR

STARTCHAR edieresis
ENCODING 235
SWIDTH 560 0
DWIDTH 28 0
BBX 31 37 3 -1
BITMAP
000780F0
001FC3F8
001FC3F8
003FC7F8
003FC7F8
003F87F0
001F03E0
000E01C0
00000000
00000000
00000000
0001FC00
000FFF00
007FFF80
00FFFFC0
03FFFFE0
07FE1FE0
07FC0FE0
0FF80FE0
1FF01FE0
1FE03FC0
3FE7FF80
3FFFFF00
3FFFFE00
7FFFF800
7FFF8000
7FC00000
7FC00000
7FC00200
3FC00F00
3FE03F80
3FF8FFC0
1FFFFF00
0FFFFE00
0FFFFC00
03FFF000
00FF8000
ENDCHAR

STARTCHAR igrave
ENCODING 236
SWIDTH 380 0
DWIDTH 19 0
BBX 19 39 4 -1
BITMAP
01C000
03F000
03F800
07F800
03FC00
03FE00
01FF00
007F00
001F00
000600
000000
000000
000000
001E00
01FE00
1FFC00
3FFC00
3FFC00
3FFC00
3FF800
07F800
07F800
07F800
07F000
0FF000
0FF000
0FF000
0FE000
1FE000
1FE000
1FE000
1FC200
1FC600
3FFF00
1FFF80
1FFF00
0FFE00
07F800
00C000
ENDCHAR

STARTCHAR iacute
ENCODING 237
SWIDTH 380 0
DWIDTH 19 0
BBX 23 39 4 -1
BITMAP
000070
0000F8
0001FC
0003FC
0007FC
000FF8
000FF0
001FC0
001F00
000C00
000000
000000
000000
001E00
01FE00
1FFC00
3FFC00
3FFC00
3FFC00
3FF800
07F800
07F800
07F800
07F000
0FF000
0FF000
0FF000
0FE000
1FE000
1FE000
1FE000
1FC200
1FC600
3FFF00
1FFF80
1FFF00
0FFE00
07F800
00C000
ENDCHAR

STARTCHAR icircumflex
ENCODING 238
SWIDTH 380 0
DWIDTH 19 0
BBX 23 38 4 -1
BITMAP
000400
001E00
003F80
00FFC0
03FFF0
07FFF8
07E1F8
038070
000000
000000
000000
000000
001E00
01FE00
1FFC00
3FFC00
3FFC00
3FFC00
3FF800
07F800
07F800
07F800
07F000
0FF000
0FF000
0FF000
0FE000
1FE000
1FE000
1FE000
1FC200
1FC600
3FFF00
1FFF80
1FFF00
0FFE00
07F800
00C000
ENDCHAR

STARTCHAR idieresis
ENCODING 239
SWIDTH 380 0
DWIDTH 19 0
BBX 26 38 4 -1
BITMAP
00F01E00
03F87F00
03F87F00
07F8FF00
07F8FF00
07F0FE00
07F0FE00
03C07800
00000000
00000000
00000000
00000000
001E0000
01FE0000
1FFC0000
3FFC0000
3FFC0000
3FFC0000
3FF80000
07F80000
07F80000
07F80000
07F00000
0FF00000
0FF00000
0FF00000
0FE00000
1FE00000
1FE00000
1FE00000
1FC20000
1FC60000
3FFF0000
1FFF8000
1FFF0000
0FFE0000
07F80000
00C00000
ENDCHAR

STARTCHAR gbreve
ENCODING 240
SWIDTH 620 0
DWIDTH 31 0
BBX 35 45 0 -11
BITMAP
0000F00F00
0000F81F00
0000FFFE00
00007FFE00
00003FF800
00000FE000
0000000000
0000000000
0000000000
0000FC0000
0007FF8F80
001FFFDF80
003FFFFF80
007FFFFF80
00FFC3FF80
01FF80FF00
01FF00FF00
03FE00FF00
03FE00FF00
07FC00FE00
07FC01FE00
07F801FE00
0FF803FE00
0FF803FC00
0FF807FC00
0FF807FC00
0FF80FFC00
0FF81FFC00
07FC3FF800
07FFFFF800
03FFFFF800
03FFFFF800
01FFF7F000
00FFC7F000
001F0FF000
00000FE000
0E001FE000
1F003FE000
3F807FC000
3FC0FF8000
3FFFFF0000
3FFFFE0000
1FFFF80000
0FFFF00000
01FF000000
ENDCHAR

STARTCHAR ntilde
ENCODING 241
SWIDTH 680 0
DWIDTH 34 0
BBX 35 35 4 0
BITMAP
00007C0000
0000FF8C00
0001FFFE00
0003FFFC00
00038FF800
000103F000
0000000000
0000000000
0000000000
0000000000
001E0F8000
00FC7FE000
1FFCFFF000
1FFDFFF000
3FFFFFF800
3FFFFFF800
3FFF87F800
03FF07F800
07FE07F800
07FE0FF000
07FC0FF000
07F80FF000
0FF80FE000
0FF01FE000
0FF01FE000
0FF01FE000
0FE01FC000
1FE01FC000
1FE03FC200
1FE03FCE00
1FC03FFF00
3FC03FFF80
3FC01FFF00
3FC00FFC00
3F8007F000
ENDCHAR

STARTCHAR ograve
ENCODING 242
SWIDTH 600 0
DWIDTH 30 0
BBX 31 39 2 -1
BITMAP
00070000
000FC000
000FE000
000FF000
000FF000
000FF800
0003FC00
0001FE00
00007C00
00001800
00000000
00000000
00000000
0007F800
003FFF00
007FFF80
01FFFFE0
03FFFFE0
07FE1FF0
07FC0FF0
0FF80FF8
1FF007F8
1FF007F8
1FE007F8
3FE007F8
3FE007F8
3FC00FF8
3FC00FF8
3FC00FF0
3FC01FF0
3FC01FF0
3FE03FE0
1FE07FC0
1FF0FFC0
0FFFFF80
07FFFF00
03FFFC00
01FFF800
003FC000
ENDCHAR

STARTCHAR oacute
ENCODING 243
SWIDTH 600 0
DWIDTH 30 0
BBX 31 39 2 -1
BITMAP
000001C0
000003E0
000007F0
00000FF0
00001FE0
00003FE0
00003FC0
00007F00
00007C00
00003000
00000000
00000000
00000000
0007F800
003FFF00
007FFF80
01FFFFE0
03FFFFE0
07FE1FF0
07FC0FF0
0FF80FF8
1FF007F8
1FF007F8
1FE007F8
3FE007F8
3FE007F8
3FC00FF8
3FC00FF8
3FC00FF0
3FC01FF0
3FC01FF0
3FE03FE0
1FE07FC0
1FF0FFC0
0FFFFF80
07FFFF00
03FFFC00
01FFF800
003FC000
ENDCHAR

STARTCHAR ocircumflex
ENCODING 244
SWIDTH 600 0
DWIDTH 30 0
BBX 31 38 2 -1
BITMAP
00001000
00007800
0001FE00
0003FF00
000FFFC0
001FFFE0
001F87E0
000C01C0
00000000
00000000
00000000
00000000
0007F800
003FFF00
007FFF80
01FFFFE0
03FFFFE0
07FE1FF0
07FC0FF0
0FF80FF8
1FF007F8
1FF007F8
1FE007F8
3FE007F8
3FE007F8
3FC00FF8
3FC00FF8
3FC00FF0
3FC01FF0
3FC01FF0
3FE03FE0
1FE07FC0
1FF0FFC0
0FFFFF80
07FFFF00
03FFFC00
01FFF800
003FC000
ENDCHAR

STARTCHAR otilde
ENCODING 245
SWIDTH 600 0
DWIDTH 30 0
BBX 31 36 2 -1
BITMAP
0000F800
0003FF38
0007FFFC
0007FFF8
00071FF0
000207E0
00000000
00000000
00000000
00000000
0007F800
003FFF00
007FFF80
01FFFFE0
03FFFFE0
07FE1FF0
07FC0FF0
0FF80FF8
1FF007F8
1FF007F8
1FE007F8
3FE007F8
3FE007F8
3FC00FF8
3FC00FF8
3FC00FF0
3FC01FF0
3FC01FF0
3FE03FE0
1FE07FC0
1FF0FFC0
0FFFFF80
07FFFF00
03FFFC00
01FFF800
003FC000
ENDCHAR

STARTCHAR odieresis
ENCODING 246
SWIDTH 600 0
DWIDTH 30 0
BBX 31 38 3 -1
BITMAP
000780F0
000FC3F8
001FC3F8
003FC7F8
003FC7F8
003F87F0
001F87F0
001E03C0
00000000
00000000
00000000
00000000
0007F800
003FFF00
00FFFF80
01FFFFE0
03FFFFE0
07FE1FF0
07F80FF0
0FF80FF8
1FF007F8
1FE007F8
1FE007F8
3FE007F8
3FC00FF8
3FC00FF8
3FC00FF8
3FC00FF0
3FC01FF0
3FC01FF0
3FC03FE0
1FE07FC0
1FF1FFC0
0FFFFF80
07FFFF00
03FFFC00
01FFF000
003F8000
ENDCHAR

STARTCHAR divide
ENCODING 247
SWIDTH 600 0
DWIDTH 30 0
BBX 27 23 6 6
BITMAP
000E0000
001F0000
003F8000
003F8000
003F8000
001F0000
000E0000
00000000
00000000
7FFFFFC0
7FFFFFC0
7FFFFFC0
7FFFFFC0
7FFFFFC0
00000000
00000000
00060000
001F0000
003F8000
003F8000
003F8000
001F0000
000E0000
ENDCHAR

STARTCHAR oslash
ENCODING 248
SWIDTH 600 0
DWIDTH 30 0
BBX 35 25 0 0
BITMAP
0001FF0100
000FFFC700
001FFFEF80
007FFFFF00
00FFFFFE00
01FF87FC00
03FF03FE00
03FE03FE00
07FC0FFE00
07FC1FFE00
07F83FFE00
0FF8FDFE00
0FF9F1FE00
0FF3E3FE00
0FF7C3FE00
0FFF83FC00
0FFE07FC00
0FFC07F800
0FF80FF800
07FC1FF000
07FFFFE000
0FFFFFC000
3FFFFF8000
3C7FFF0000
183FF80000
ENDCHAR

STARTCHAR ugrave
ENCODING 249
SWIDTH 680 0
DWIDTH 34 0
BBX 35 39 3 -1
BITMAP
0000C00000
0003F00000
0003F80000
0003FC0000
0003FC0000
0003FE0000
0001FF0000
00007F0000
00001F8000
0000070000
0000000000
0000000000
0000000000
000E000000
007E01FC00
1FFC03FC00
1FFC03FC00
1FFC03FC00
3FFC03F800
3FFC07F800
03F807F800
07F807F800
07F807F800
07F80FF000
07F00FF000
07F00FF000
0FF01FF000
0FF01FE000
0FF03FE000
0FE03FE000
1FE07FE000
1FE0FFE000
1FE1FFC200
1FFFFFEF00
1FFFDFFF80
1FFF9FFF80
0FFF1FFF00
07FE0FFC00
03F803F000
ENDCHAR

STARTCHAR uacute
ENCODING 250
SWIDTH 680 0
DWIDTH 34 0
BBX 35 39 3 -1
BITMAP
0000003000
000000F800
000001FC00
000003FC00
000007FC00
000007F800
00000FF000
00001FE000
00001F8000
00000C0000
0000000000
0000000000
0000000000
000E000000
007E01FC00
1FFC03FC00
1FFC03FC00
1FFC03FC00
3FFC03F800
3FFC07F800
03F807F800
07F807F800
07F807F800
07F80FF000
07F00FF000
07F00FF000
0FF01FF000
0FF01FE000
0FF03FE000
0FE03FE000
1FE07FE000
1FE0FFE000
1FE1FFC200
1FFFFFEF00
1FFFDFFF80
1FFF9FFF80
0FFF1FFF00
07FE0FFC00
03F803F000
ENDCHAR

STARTCHAR ucircumflex
ENCODING 251
SWIDTH 680 0
DWIDTH 34 0
BBX 35 37 3 -1
BITMAP
00000E0000
00003F8000
0000FFC000
0003FFF000
0007FFF800
0007E1F800
0003807000
0002000000
0000000000
0000000000
0000000000
000E000000
007E01FC00
1FFC03FC00
1FFC03FC00
1FFC03FC00
3FFC03F800
3FFC07F800
03F807F800
07F807F800
07F807F800
07F80FF000
07F00FF000
07F00FF000
0FF01FF000
0FF01FE000
0FF03FE000
0FE03FE000
1FE07FE000
1FE0FFE000
1FE1FFC200
1FFFFFEF00
1FFFDFFF80
1FFF9FFF80
0FFF1FFF00
07FE0FFC00
03F803F000
ENDCHAR

STARTCHAR udieresis
ENCODING 252
SWIDTH 680 0
DWIDTH 34 0
BBX 35 38 3 -1
BITMAP
0001E03C00
0007F0FE00
0007F0FE00
000FF1FE00
000FF1FE00
000FE1FC00
000FE1FC00
000780F800
0000000000
0000000000
0000000000
0000000000
000E000000
007E01FE00
1FFE01FC00
1FFC03FC00
1FFC03FC00
3FFC03FC00
3FFC03F800
03FC07F800
07F807F800
07F807F800
07F807F800
07F80FF000
07F00FF000
0FF00FF000
0FF01FF000
0FF01FE000
0FE03FE000
1FE07FE000
1FE0FFE000
1FE1FFE200
1FFFFFE700
1FFFFFFF80
1FFFDFFF80
0FFF8FFF00
07FE07FE00
03F803F800
ENDCHAR

STARTCHAR dotlessi
ENCODING 253
SWIDTH 380 0
DWIDTH 19 0
BBX 18 26 4 -1
BITMAP
001E00
01FC00
3FFC00
3FFC00
3FFC00
3FF800
7FF800
07F800
07F800
07F000
0FF000
0FF000
0FF000
0FE000
1FE000
1FE000
1FE000
1FC000
3FC000
3FC200
3FCF00
3FFF00
3FFF80
1FFF00
0FFC00
07F000
ENDCHAR

STARTCHAR scedilla
ENCODING 254
SWIDTH 540 0
DWIDTH 27 0
BBX 29 36 2 -11
BITMAP
0007F800
003FFF00
00FFFFC0
01FFFFE0
03FFFFE0
03FC3FE0
03F80FE0
07F807E0
07FC03C0
07FF8000
03FFF000
03FFFC00
01FFFF00
00FFFF80
003FFF80
000FFFC0
0C01FFC0
3E007FC0
3F003FC0
3F803F80
3FE07F80
3FFFFF00
1FFFFF00
0FFFFC00
01FFF000
001F8000
00180000
001F0000
001FC000
0001E000
0001E000
00E1E000
00F1E000
00FFC000
007FC000
001F0000
ENDCHAR

STARTCHAR ydieresis
ENCODING 255
SWIDTH 600 0
DWIDTH 30 0
BBX 34 48 0 -11
BITMAP
0000F01E00
0003F87F00
0003F87F00
0007F8FF00
0007F8FF00
0007F0FE00
0007F0FE00
0003C07800
0000000000
0000000000
0000000000
0000000000
0001C00000
001FC07F80
03FF807F00
03FF807F00
07FF80FF00
07FF80FF00
07FF00FF00
007F00FE00
00FF00FE00
00FF01FE00
00FF01FE00
00FE01FC00
00FE03FC00
01FE03FC00
01FE07FC00
01FC07FC00
01FC0FF800
03FC0FF800
03FC1FF800
03FC7FF800
03FFFFF000
03FFFFF000
01FFF7F000
01FFEFF000
00FFCFE000
003E0FE000
00001FE000
1E001FC000
3F003FC000
3F807F8000
7FC1FF0000
7FFFFF0000
3FFFFC0000
1FFFF80000
0FFFE00000
01FF000000
ENDCHAR
ENDFONT
